<?xml version="1.0" encoding="utf-8"?>
<!-- Generator: Adobe Illustrator 27.5.0, SVG Export Plug-In . SVG Version: 6.00 Build 0)  -->
<svg version="1.1" xmlns="http://www.w3.org/2000/svg" xmlns:xlink="http://www.w3.org/1999/xlink" x="0px" y="0px"
	 viewBox="0 0 500 500" style="enable-background:new 0 0 500 500;" xml:space="preserve">
<g id="BACKGROUND">
	<rect style="opacity:0.3;fill:#E9BF9A;" width="500" height="500"/>
</g>
<g id="OBJECTS">
	<g>
		<path style="fill:#E9BF9A;" d="M51,273.996c-14.933-54.734-4.101-106.821,22.413-154.381c17.681-31.715,42.97-56.06,75.874-73.048
			c32.891-16.995,68.237-24.994,106.032-24.016c37.788,0.99,72.943,10.526,105.433,28.638c47.656,26.567,79.447,64.4,95.421,113.473
			C472.105,213.747,466.859,270.23,438,321.996c-28.291,50.747-70.58,78.256-124.433,94.643
			C259.686,433.044,197.896,430.37,147,401.996C95.007,373.011,65.905,328.749,51,273.996z"/>
	</g>
	<g>
		<ellipse style="fill:#E9BF9A;" cx="244.26" cy="461.235" rx="146.466" ry="15.235"/>
		<g>
			<g>
				<g>
					<g>
						<path style="fill:#FCCE7D;" d="M63.787,163.074c0,0-16.875,82.444,51.768,49.77l15.248-21.807c0,0-43.862,23.721-53.516,9.16
							c-9.655-14.56-5.174-34.958-5.174-34.958L63.787,163.074z"/>
						<g>
							<path style="fill:#550340;" d="M111.083,199.867c-1.306,5.838-3.306,11.491-5.435,17.113c3.09-1.098,6.38-2.457,9.908-4.137
								l15.248-21.807C130.803,191.037,121.816,195.897,111.083,199.867z"/>
							<path style="fill:#550340;" d="M71.405,182.714c-1.039-9.52,0.708-17.475,0.708-17.475l-8.326-2.166
								c0,0-1.803,8.822-1.83,19.549C65.106,182.647,68.255,182.678,71.405,182.714z"/>
						</g>
					</g>
					<path style="fill:none;stroke:#550340;stroke-width:3;stroke-linecap:round;stroke-linejoin:round;stroke-miterlimit:10;" d="
						M63.787,163.074c0,0-16.875,82.444,51.768,49.77l15.248-21.807c0,0-43.862,23.721-53.516,9.16
						c-9.655-14.56-5.174-34.958-5.174-34.958L63.787,163.074z"/>
				</g>
				<g>
					<g>
						<path style="fill:#FFFFFF;" d="M68.156,175.04c0,0-17.813,3.61-18.721-4.503c-0.571-5.1-0.715-8.957,4.59-8.977
							c0,0-7.647-15.784-4.469-18.148c3.178-2.364,23.876-6.308,27.893-3.265c6.269,4.749,1.667,17.457,1.667,17.457l-12.527,4.701
							c0,0-7.238-15.973,11.575-14.492c0,0,6.745-10.222,12.099-8.526c5.354,1.696-8.576,24.628-17.517,25.485
							c-8.941,0.857,8.732-6.571,12.104-2.072C88.222,167.201,84.779,173.61,68.156,175.04z"/>
						<path style="fill:#FFFFFF;" d="M49.348,149.251c0,0-11.483-21.861-5.185-24.539c6.299-2.678,12.493,18.066,12.493,18.066
							l1.642-0.71c0,0-6.863-21.589-0.629-22.287c6.233-0.698,7.334,7.859,8.802,20.978l2.55-0.285c0,0-0.738-20.697,3.937-21.22
							c4.675-0.523,7.403,2.065,4.64,22.233C74.835,161.654,49.348,149.251,49.348,149.251z"/>
					</g>
					<g>
						<g>
							
								<path style="fill:none;stroke:#550340;stroke-width:3;stroke-linecap:round;stroke-linejoin:round;stroke-miterlimit:10;" d="
								M79.97,161.053c1.843,0.002,4.087,0.59,4.88,1.648c3.372,4.5-0.07,10.91-16.693,12.339c0,0-17.813,3.61-18.721-4.503
								c-0.571-5.1-0.715-8.957,4.59-8.977"/>
							
								<path style="fill:none;stroke:#550340;stroke-width:3;stroke-linecap:round;stroke-linejoin:round;stroke-miterlimit:10;" d="
								M58.143,163.025c0,0,16.361,1.453,22.1-2.579c8.274-5.813,13.992-19.9,10.019-21.159c-5.354-1.696-12.099,8.526-12.099,8.526
								c-16.262-1.486-12.248,11.333-12.248,11.333"/>
							
								<path style="fill:none;stroke:#550340;stroke-width:3;stroke-linecap:round;stroke-linejoin:round;stroke-miterlimit:10;" d="
								M54.183,161.07c-2.866-0.943-4.835-11.819-4.835-11.819s-11.483-21.861-5.185-24.539
								c6.299-2.678,12.493,18.066,12.493,18.066l1.642-0.71c0,0-6.863-21.589-0.629-22.287c6.233-0.698,7.334,7.859,8.802,20.978
								l2.55-0.285c0,0-0.738-20.697,3.937-21.22c4.675-0.523,8.355,0.789,5.592,20.957c-0.153,1.117,0.673,2.959,1.336,3.944"/>
						</g>
						<path style="fill:none;stroke:#550340;stroke-width:3;stroke-linecap:round;stroke-linejoin:round;stroke-miterlimit:10;" d="
							M52.781,143.739c0,0,12.82-3.794,21.497-2.081"/>
					</g>
				</g>
			</g>
			<g>
				<g>
					<g>
						<path style="fill:#E8AF30;" d="M172.774,372.971c0,0-22.131,19.227-24.302,70.484l6.287,2.453c0,0,1.99-41.157,40.532-66.379
							C233.833,354.307,172.774,372.971,172.774,372.971z"/>
						<path style="fill:#550340;" d="M174.846,397.818c5.301-6.461,11.994-12.758,20.445-18.288
							c38.542-25.222-22.517-6.558-22.517-6.558s-6.225,5.41-12.395,18.135C165.147,393.463,169.967,395.71,174.846,397.818z"/>
						<path style="fill:none;stroke:#550340;stroke-width:3;stroke-linecap:round;stroke-linejoin:round;stroke-miterlimit:10;" d="
							M172.774,372.971c0,0-22.131,19.227-24.302,70.484l6.287,2.453c0,0,1.99-41.157,40.532-66.379
							C233.833,354.307,172.774,372.971,172.774,372.971z"/>
					</g>
					<g>
						<g>
							<path style="fill:#EF1B23;" d="M159.564,457.684l6.414-27.453l-8.157-3.332l-3.34,11.163l-0.156-12.591l-14.937-1.222
								l3.397,14.984c0,0-32.469,2.734-28.723,13.143C118.825,465.602,159.564,457.684,159.564,457.684z"/>
							<path style="fill:#FFFFFF;" d="M160.253,453.233c-1.748,0.326-13.498,2.428-24.649,2.298
								c-0.697-5.358-2.231-10.794-5.06-14.572c-6.437,1.331-13.576,3.53-16.137,6.975c-0.012,0.016-0.023,0.033-0.035,0.049
								c-0.116,0.159-0.221,0.32-0.317,0.484c-0.015,0.026-0.031,0.053-0.046,0.079c-0.095,0.169-0.179,0.34-0.251,0.515
								c-0.006,0.014-0.013,0.028-0.019,0.042c-0.152,0.375-0.249,0.764-0.29,1.166c-0.005,0.051-0.006,0.103-0.01,0.155
								c-0.009,0.145-0.012,0.292-0.006,0.44c0.003,0.065,0.006,0.131,0.012,0.197c0.012,0.145,0.034,0.292,0.061,0.44
								c0.011,0.063,0.02,0.125,0.034,0.189c0.047,0.21,0.105,0.421,0.183,0.637c0.131,0.363,0.293,0.708,0.477,1.04
								c0.016,0.029,0.029,0.059,0.045,0.087c0.179,0.314,0.385,0.612,0.609,0.898c0.03,0.039,0.059,0.078,0.09,0.117
								c0.224,0.276,0.47,0.538,0.733,0.789c0.042,0.04,0.084,0.08,0.127,0.12c0.267,0.245,0.553,0.479,0.857,0.7
								c0.049,0.036,0.098,0.071,0.148,0.106c0.312,0.22,0.639,0.43,0.984,0.627c0.048,0.027,0.097,0.054,0.146,0.081
								c0.359,0.199,0.731,0.389,1.122,0.566c0.036,0.016,0.073,0.031,0.109,0.047c0.413,0.183,0.84,0.356,1.285,0.516
								c0.001,0,0.001,0,0.001,0c0.456,0.164,0.929,0.314,1.415,0.454c0.024,0.007,0.047,0.014,0.071,0.021
								c0.469,0.134,0.953,0.255,1.447,0.369c0.048,0.011,0.096,0.023,0.144,0.034c0.485,0.109,0.982,0.208,1.488,0.298
								c0.058,0.01,0.116,0.021,0.175,0.031c0.506,0.088,1.021,0.167,1.544,0.239c0.059,0.008,0.119,0.016,0.178,0.024
								c0.531,0.07,1.068,0.132,1.614,0.186c0.048,0.005,0.096,0.009,0.145,0.014c0.563,0.054,1.133,0.101,1.709,0.14
								c0.016,0.001,0.033,0.002,0.049,0.003c1.82,0.12,3.692,0.164,5.566,0.15c0.001,0,0.003,0,0.004,0l0,0
								c11.569-0.084,23.219-2.348,23.219-2.348L160.253,453.233z"/>
						</g>
						<g>
							<g>
								
									<path style="fill:none;stroke:#550340;stroke-width:3;stroke-linecap:round;stroke-linejoin:round;stroke-miterlimit:10;" d="
									M159.224,457.635l6.414-27.453l-8.157-3.332l-3.454,11.956l-0.042-13.384l-14.937-1.222l3.397,14.984
									c0,0-32.469,2.734-28.723,13.142C118.485,465.553,159.224,457.635,159.224,457.635z"/>
								
									<path style="fill:none;stroke:#550340;stroke-width:3;stroke-linecap:round;stroke-linejoin:round;stroke-miterlimit:10;" d="
									M114.806,448.551c0,0,1.145,4.907,12.736,6.342c11.591,1.435,31.978-1.995,31.978-1.995"/>
							</g>
							<g>
								
									<path style="fill:none;stroke:#550340;stroke-width:3;stroke-linecap:round;stroke-linejoin:round;stroke-miterlimit:10;" d="
									M133.529,440.602c0,0,3.462,3.273,4.462,6.771"/>
								
									<path style="fill:none;stroke:#550340;stroke-width:3;stroke-linecap:round;stroke-linejoin:round;stroke-miterlimit:10;" d="
									M138.938,439.991c0,0,3.462,3.273,4.462,6.772"/>
								
									<path style="fill:none;stroke:#550340;stroke-width:3;stroke-linecap:round;stroke-linejoin:round;stroke-miterlimit:10;" d="
									M143.519,439.444c0,0,4.076,2.467,5.794,5.675"/>
							</g>
						</g>
					</g>
				</g>
				<g>
					<g>
						<path style="fill:#E8AF30;" d="M292.33,383.818c0,0,35.223,36.052,39.431,70.503l5.948-2.665c0,0-1.645-47.711-24.529-72.247
							C290.295,354.874,292.33,383.818,292.33,383.818z"/>
						<path style="fill:#550340;" d="M328.403,405.39c-3.558-9.464-8.464-18.734-15.223-25.981
							c-22.885-24.536-20.85,4.409-20.85,4.409s9.667,9.903,19.478,24.278C317.335,407.165,322.866,406.256,328.403,405.39z"/>
						<path style="fill:none;stroke:#550340;stroke-width:3;stroke-linecap:round;stroke-linejoin:round;stroke-miterlimit:10;" d="
							M292.33,383.818c0,0,35.223,36.052,39.431,70.503l5.948-2.665c0,0-1.645-47.711-24.529-72.247
							C290.295,354.874,292.33,383.818,292.33,383.818z"/>
					</g>
					<g>
						<g>
							<path style="fill:#EF1B23;" d="M325.655,461.207l-5.531-27.645l8.26-3.069l2.98,11.264l0.56-12.579l14.969-0.743
								l-3.876,14.868c0,0,32.365,3.773,28.287,14.056C366.12,470.426,325.655,461.207,325.655,461.207z"/>
							<path style="fill:#FFFFFF;" d="M325.109,456.735c1.736,0.382,13.414,2.859,24.563,3.087
								c0.868-5.333,2.576-10.717,5.525-14.402c6.391,1.536,13.456,3.963,15.905,7.489c0.012,0.017,0.022,0.034,0.033,0.05
								c0.111,0.162,0.211,0.327,0.301,0.494c0.014,0.027,0.029,0.053,0.043,0.08c0.089,0.172,0.168,0.346,0.235,0.522
								c0.005,0.014,0.012,0.028,0.017,0.042c0.139,0.38,0.225,0.772,0.253,1.175c0.004,0.051,0.003,0.104,0.005,0.155
								c0.005,0.145,0.003,0.292-0.008,0.44c-0.005,0.065-0.011,0.131-0.018,0.197c-0.017,0.145-0.043,0.291-0.075,0.438
								c-0.014,0.063-0.024,0.125-0.041,0.188c-0.054,0.208-0.119,0.418-0.203,0.632c-0.142,0.359-0.316,0.698-0.51,1.024
								c-0.017,0.028-0.031,0.058-0.048,0.085c-0.189,0.308-0.404,0.599-0.637,0.878c-0.031,0.038-0.061,0.077-0.094,0.114
								c-0.233,0.268-0.487,0.522-0.758,0.765c-0.044,0.039-0.087,0.078-0.131,0.116c-0.275,0.236-0.568,0.46-0.879,0.673
								c-0.05,0.034-0.101,0.068-0.151,0.101c-0.318,0.21-0.652,0.409-1.004,0.595c-0.049,0.026-0.099,0.05-0.148,0.076
								c-0.365,0.188-0.743,0.365-1.14,0.529c-0.036,0.015-0.074,0.029-0.11,0.043c-0.419,0.17-0.851,0.329-1.301,0.475
								c0,0-0.001,0-0.002,0.001c-0.461,0.149-0.938,0.284-1.429,0.408c-0.024,0.006-0.048,0.013-0.072,0.019
								c-0.473,0.118-0.961,0.225-1.458,0.322c-0.048,0.009-0.096,0.02-0.145,0.029c-0.488,0.093-0.988,0.176-1.497,0.25
								c-0.059,0.009-0.117,0.017-0.176,0.026c-0.508,0.072-1.026,0.135-1.551,0.189c-0.06,0.006-0.119,0.012-0.179,0.018
								c-0.533,0.053-1.072,0.098-1.619,0.134c-0.048,0.003-0.097,0.006-0.145,0.009c-0.565,0.036-1.136,0.065-1.712,0.085
								c-0.016,0-0.033,0.001-0.049,0.001c-1.823,0.061-3.695,0.045-5.568-0.028c-0.001,0-0.003,0-0.004,0l0,0
								c-11.56-0.455-23.132-3.091-23.132-3.091L325.109,456.735z"/>
						</g>
						<g>
							<g>
								
									<path style="fill:none;stroke:#550340;stroke-width:3;stroke-linecap:round;stroke-linejoin:round;stroke-miterlimit:10;" d="
									M325.996,461.169l-5.531-27.645l8.259-3.069l3.069,12.061l0.471-13.376l14.969-0.743l-3.876,14.868
									c0,0,32.365,3.773,28.287,14.056C366.462,470.388,325.996,461.169,325.996,461.169z"/>
								
									<path style="fill:none;stroke:#550340;stroke-width:3;stroke-linecap:round;stroke-linejoin:round;stroke-miterlimit:10;" d="
									M370.683,453.513c0,0-1.302,4.867-12.933,5.93c-11.631,1.063-31.897-3.019-31.897-3.019"/>
							</g>
							<g>
								
									<path style="fill:none;stroke:#550340;stroke-width:3;stroke-linecap:round;stroke-linejoin:round;stroke-miterlimit:10;" d="
									M352.224,444.968c0,0-3.565,3.161-4.677,6.625"/>
								
									<path style="fill:none;stroke:#550340;stroke-width:3;stroke-linecap:round;stroke-linejoin:round;stroke-miterlimit:10;" d="
									M346.838,444.184c0,0-3.565,3.161-4.677,6.625"/>
								
									<path style="fill:none;stroke:#550340;stroke-width:3;stroke-linecap:round;stroke-linejoin:round;stroke-miterlimit:10;" d="
									M342.276,443.49c0,0-4.153,2.336-5.972,5.486"/>
							</g>
						</g>
					</g>
				</g>
			</g>
			<g>
				<g>
					<g>
						<g>
							<path style="fill:#FCCE7D;" d="M108.427,297.84c0,0-10.612,26.5-4.089,45.835c6.523,19.335,48.689,41.689,146.85,48.9
								c98.16,7.211,140.179-13.211,145.479-46.039c5.3-32.828-15.38-42.933-15.38-42.933L108.427,297.84z"/>
							<path style="opacity:0.4;fill:#E8AF30;" d="M381.286,303.603l-21.889-0.462c5.079,5.889,11.061,17.313,8.138,37.121
								c-4.773,32.35-43.233,52.374-133.222,45.01c-74.708-6.113-114.068-22.415-128.731-38.691
								c9.616,18.616,52.328,39.142,145.605,45.994c98.16,7.211,140.179-13.211,145.48-46.039
								C401.967,313.707,381.286,303.603,381.286,303.603z"/>
							<path style="fill:#E8AF30;" d="M108.427,297.84c0,0-8.973,17.859,91.141,32.852c142.283,21.309,216.562-6.637,181.718-27.089
								S117.375,265.6,108.427,297.84z"/>
						</g>
						<g style="opacity:0.5;">
							<path style="fill:#E8AF30;" d="M312.079,358.446c-4.643-3.85-10.526,3.243-5.883,7.094
								C310.839,369.39,316.722,362.296,312.079,358.446z"/>
							<path style="fill:#E8AF30;" d="M290.361,358.992c-4.643-3.85-10.526,3.243-5.883,7.094
								C289.121,369.936,295.004,362.842,290.361,358.992z"/>
							<g>
								<g>
									<path style="fill:#E8AF30;" d="M295.427,355.936c2.993,0,2.993-4.642,0-4.642
										C292.434,351.294,292.434,355.936,295.427,355.936L295.427,355.936z"/>
								</g>
							</g>
							<g>
								<g>
									<path style="fill:#E8AF30;" d="M299.922,377.623c2.993,0,2.993-4.642,0-4.642
										C296.929,372.981,296.929,377.623,299.922,377.623L299.922,377.623z"/>
								</g>
							</g>
							<g>
								<g>
									<path style="fill:#E8AF30;" d="M272.065,352.326c2.994,0,2.994-4.642,0-4.642
										C269.071,347.684,269.071,352.326,272.065,352.326L272.065,352.326z"/>
								</g>
							</g>
							<g>
								<g>
									<path style="fill:#E8AF30;" d="M337.744,347.069c3.609,0,3.609-5.597,0-5.597
										C334.135,341.472,334.135,347.069,337.744,347.069L337.744,347.069z"/>
								</g>
							</g>
							<g>
								<g>
									<path style="fill:#E8AF30;" d="M333.848,359.716c3.609,0,3.609-5.597,0-5.597
										C330.239,354.119,330.239,359.716,333.848,359.716L333.848,359.716z"/>
								</g>
							</g>
							<g>
								<g>
									<path style="fill:#E8AF30;" d="M341.851,356.249c3.609,0,3.609-5.597,0-5.597
										C338.242,350.652,338.242,356.249,341.851,356.249L341.851,356.249z"/>
								</g>
							</g>
							<g>
								<g>
									<path style="fill:#E8AF30;" d="M327.378,375.328c3.609,0,3.609-5.597,0-5.597
										C323.768,369.731,323.768,375.328,327.378,375.328L327.378,375.328z"/>
								</g>
							</g>
							<g>
								<g>
									<path style="fill:#E8AF30;" d="M298.671,364.051c1.497,0,1.497-2.321,0-2.321
										C297.175,361.73,297.175,364.051,298.671,364.051L298.671,364.051z"/>
								</g>
							</g>
							<g>
								<g>
									<path style="fill:#E8AF30;" d="M330.133,345.131c1.805,0,1.805-2.798,0-2.798S328.328,345.131,330.133,345.131
										L330.133,345.131z"/>
								</g>
							</g>
							<g>
								<g>
									<path style="fill:#E8AF30;" d="M319.709,373.117c1.497,0,1.497-2.321,0-2.321S318.212,373.117,319.709,373.117
										L319.709,373.117z"/>
								</g>
							</g>
						</g>
					</g>
					<g>
						<path style="fill:none;stroke:#550340;stroke-width:3;stroke-linecap:round;stroke-linejoin:round;stroke-miterlimit:10;" d="
							M108.427,297.84c0,0-10.612,26.5-4.089,45.835c6.523,19.335,48.689,41.689,146.85,48.9
							c98.16,7.211,140.179-13.211,145.479-46.039c5.3-32.828-15.38-42.933-15.38-42.933"/>
						<path style="fill:none;stroke:#550340;stroke-width:3;stroke-linecap:round;stroke-linejoin:round;stroke-miterlimit:10;" d="
							M108.427,297.84c0,0-8.973,17.859,91.141,32.852c142.283,21.309,216.562-6.637,181.718-27.089S117.375,265.6,108.427,297.84z"
							/>
					</g>
				</g>
				<g>
					<g>
						<g>
							<path style="fill:#801132;" d="M142.628,238.237c0,0-34.781-12.318-41.303,13.768c-6.521,26.086-0.725,44.201,10.869,48.549
								c11.594,4.348,97.809,34.525,192.747,29.709c99.997-5.072,96.054-21.677,99.272-44.201
								c2.174-15.217-2.174-34.057-36.231-34.057C333.926,252.005,205.67,249.106,142.628,238.237z"/>
							
								<path style="fill:none;stroke:#550340;stroke-width:3;stroke-linecap:round;stroke-linejoin:round;stroke-miterlimit:10;" d="
								M144.032,238.237c0,0-34.781-12.318-41.303,13.768c-6.521,26.086-0.725,44.201,10.869,48.549
								c11.594,4.348,97.809,34.525,192.747,29.709c99.996-5.072,96.054-21.677,99.272-44.201
								c2.174-15.217-2.174-34.057-36.231-34.057C335.33,252.005,207.074,249.106,144.032,238.237z"/>
							<path style="fill:#550340;" d="M145.482,228.817c0,0-47.303,6.217-39.854,19.564c17.391,31.158,279.7,58.693,295.642,18.84
								C412.264,239.736,145.482,228.817,145.482,228.817z"/>
						</g>
						<g>
							
								<path style="fill:none;stroke:#550340;stroke-width:3;stroke-linecap:round;stroke-linejoin:round;stroke-miterlimit:10;" d="
								M110.915,266.978c0,0,1.56,10.919,7.799,3.12c0,0-0.936,11.854,6.863,3.12c0,0,0,11.854,6.551,3.743"/>
							
								<path style="fill:none;stroke:#550340;stroke-width:3;stroke-linecap:round;stroke-linejoin:round;stroke-miterlimit:10;" d="
								M370.751,307.11c0,0,8.395,7.154,7.911-2.822c0,0,7.143,9.507,7.21-2.203c0,0,7.845,8.888,7.389-1.529"/>
							
								<path style="fill:none;stroke:#550340;stroke-width:3;stroke-linecap:round;stroke-linejoin:round;stroke-miterlimit:10;" d="
								M204.776,306.176c0,0,5.394,9.621,8.399,0.096c0,0,3.404,11.394,7.526,0.434c0,0,4.277,11.056,7.461,1.128"/>
							
								<path style="fill:none;stroke:#550340;stroke-width:3;stroke-linecap:round;stroke-linejoin:round;stroke-miterlimit:10;" d="
								M266.857,314.287c0,0,5.394,9.621,8.399,0.096c0,0,3.404,11.394,7.526,0.434c0,0,4.277,11.056,7.461,1.128"/>
							
								<path style="fill:none;stroke:#550340;stroke-width:3;stroke-linecap:round;stroke-linejoin:round;stroke-miterlimit:10;" d="
								M350.774,299.937c0,0,5.394,9.621,8.399,0.096c0,0,3.404,11.394,7.526,0.434"/>
							
								<path style="fill:none;stroke:#550340;stroke-width:3;stroke-linecap:round;stroke-linejoin:round;stroke-miterlimit:10;" d="
								M322.182,317.868c0,0,4.053,6.231,7.896-0.826c0,0,1.992,7.697,7.038-0.494"/>
							
								<path style="fill:none;stroke:#550340;stroke-width:3;stroke-linecap:round;stroke-linejoin:round;stroke-miterlimit:10;" d="
								M164.845,308.048c0,0,5.394,9.621,8.399,0.096c0,0,3.404,11.394,7.526,0.434"/>
							
								<path style="fill:none;stroke:#550340;stroke-width:3;stroke-linecap:round;stroke-linejoin:round;stroke-miterlimit:10;" d="
								M122.769,285.384c0,0-0.312,13.102,6.863,4.056c0,0,3.432,14.662,8.423,1.248c0,0,2.808,10.295,5.303,1.248
								c0,0,0,11.231,4.991,2.808"/>
							
								<path style="fill:none;stroke:#550340;stroke-width:3;stroke-linecap:round;stroke-linejoin:round;stroke-miterlimit:10;" d="
								M233.203,295.367c0,0,4.367,10.607,7.487,0.624c0,0,1.248,6.863,4.68,0.936c0,0,4.367,15.286,12.478,1.248
								c0,0,5.615,7.799,5.615,0c0,0,5.927,8.423,9.359,0.936"/>
						</g>
					</g>
					<g>
						<g>
							<path style="fill:#EF1B23;" d="M252.465,278.831c0,0,29.944-0.692,29.262,5.89c-0.681,6.582-1,22.517,5.024,20.878
								c6.024-1.638,8.699-17.196,13.665-9.896c4.966,7.3,2.49,28.001,15.546,26.558c13.056-1.443,8.228-29.353,12.922-29.067
								c4.694,0.286,5.038,9.171,11.567,8.449c6.528-0.721,1.472-10.359,9.421-10.668c7.949-0.308,18.649-2.128,13.593-11.766
								c-5.057-9.638-73.256-17.297-73.256-17.297L252.465,278.831z"/>
							<g>
								<path style="fill:#B7182C;" d="M321.2,282.466c12.433-0.03,25.525,2.328,37.361-2.591c1.352-0.562,2.68-1.171,3.995-1.808
									c-9.492-9.093-72.347-16.154-72.347-16.154l-25.212,11.3C280.899,283.724,302.986,282.51,321.2,282.466z"/>
								<g>
									<path style="fill:#B7182C;" d="M281.468,281.651c-6.596-1.467-12.849-3.823-18.338-7.6l-10.665,4.78
										c0,0,25.744-0.591,28.934,4.574C281.416,282.802,281.439,282.216,281.468,281.651z"/>
									<path style="fill:#B7182C;" d="M349.873,284.426c-7.949,0.308-2.892,9.946-9.421,10.668
										c-6.528,0.721-6.872-8.163-11.567-8.449c-4.694-0.286,0.134,27.624-12.922,29.067
										c-13.056,1.443-10.581-19.258-15.546-26.558c-4.966-7.3-7.641,8.257-13.665,9.896c-3.678,1-4.989-4.549-5.3-10.521
										c-0.343,7.464,0.248,18.447,5.3,17.073c6.024-1.638,8.699-17.196,13.665-9.896c4.966,7.3,2.49,28.001,15.546,26.558
										c13.056-1.443,8.228-29.353,12.922-29.067c4.694,0.286,5.038,9.171,11.567,8.449c6.528-0.721,1.472-10.359,9.421-10.668
										c7.713-0.299,18.003-2.027,13.99-10.933C361.53,283.361,355.108,284.223,349.873,284.426z"/>
								</g>
							</g>
						</g>
						<path style="fill:none;stroke:#550340;stroke-width:3;stroke-linecap:round;stroke-linejoin:round;stroke-miterlimit:10;" d="
							M266.814,279.261c7.58,0.625,15.263,2.088,14.914,5.459c-0.681,6.582-1,22.517,5.024,20.878
							c6.024-1.638,8.699-17.196,13.665-9.896c4.966,7.3,2.49,28.001,15.546,26.558c13.056-1.443,8.228-29.353,12.922-29.067
							c4.694,0.286,5.038,9.171,11.567,8.449c6.528-0.721,1.472-10.359,9.421-10.668c4.793-0.186,10.587-0.921,13.323-3.589"/>
					</g>
					<g>
						<g>
							<path style="fill:#E8AF30;" d="M136.062,244.759c0,0,11.594,57.969,16.666,57.244c5.072-0.725,166.661-34.781,166.661-34.781
								l3.623-26.086L136.062,244.759z"/>
							<path style="fill:#F09F22;" d="M149.072,296.389c1.381,3.578,2.648,5.758,3.656,5.614
								c5.072-0.725,166.661-34.781,166.661-34.781l0.857-6.174C313.072,262.826,167.749,292.215,149.072,296.389z"/>
						</g>
						<path style="fill:none;stroke:#550340;stroke-width:3;stroke-linecap:round;stroke-linejoin:round;stroke-miterlimit:10;" d="
							M136.062,244.759c0,0,11.594,57.969,16.666,57.244c5.072-0.725,166.661-34.781,166.661-34.781l3.623-26.086L136.062,244.759z"
							/>
					</g>
					<g>
						<g>
							<path style="fill:#E8AF30;" d="M324.461,247.657c0,0,36.231,43.477,47.824,43.477c11.594,0,10.869-36.231,10.869-36.231
								L324.461,247.657z"/>
							<path style="fill:#F09F22;" d="M373.01,286.786c-9.157,0-33.676-27.114-43.582-38.516l-4.967-0.613
								c0,0,36.23,43.477,47.824,43.477c5.844,0,8.556-9.205,9.811-18.335C380.614,280.288,377.918,286.786,373.01,286.786z"/>
						</g>
						<path style="fill:none;stroke:#550340;stroke-width:3;stroke-linecap:round;stroke-linejoin:round;stroke-miterlimit:10;" d="
							M324.461,247.657c0,0,36.231,43.477,47.824,43.477c11.594,0,10.869-36.231,10.869-36.231L324.461,247.657z"/>
					</g>
					<g>
						<g>
							<path style="fill:#ED7A7F;" d="M183.886,241.86c0,0,3.623,31.158,56.52,30.434c52.897-0.725,52.172-28.26,52.172-28.26
								l-7.971-2.174c0,0-38.404,47.1-84.78,0.725L183.886,241.86z"/>
							<path style="fill:#CE686A;" d="M291.704,243.796c-2.546,7.933-12.492,22.894-51.299,23.426
								c-39.251,0.538-51.369-16.477-55.01-25.293l-1.51-0.069c0,0,3.623,31.158,56.52,30.434
								c52.897-0.725,52.172-28.26,52.172-28.26L291.704,243.796z"/>
						</g>
						<g>
							
								<path style="fill:none;stroke:#550340;stroke-width:3;stroke-linecap:round;stroke-linejoin:round;stroke-miterlimit:10;" d="
								M249.737,262.611c-14.413,3.092-30.425-0.541-49.91-20.026l-15.941-0.725c0,0,3.623,31.158,56.52,30.434
								c10.072-0.138,18.2-1.248,24.759-2.955"/>
							
								<path style="fill:none;stroke:#550340;stroke-width:3;stroke-linecap:round;stroke-linejoin:round;stroke-miterlimit:10;" d="
								M279.802,263.263c13.064-8.272,12.776-19.229,12.776-19.229l-7.971-2.174c0,0-5.065,8.18-17.088,14.434"/>
						</g>
					</g>
					<g>
						<g>
							<path style="fill:#ED7A7F;" d="M233.174,233.756c0,0-2.057,31.301,50.103,40.13c52.16,8.829,56.414-18.385,56.414-18.385
								l-7.448-3.576c0,0-46.27,39.4-83.52-14.58L233.174,233.756z"/>
							<path style="fill:#CE686A;" d="M338.875,255.109c-3.935,7.343-16.417,20.265-54.683,13.788
								c-38.704-6.551-47.554-25.473-49.545-34.801l-1.473-0.34c0,0-2.057,31.301,50.103,40.13
								c52.16,8.829,56.414-18.385,56.414-18.385L338.875,255.109z"/>
						</g>
						<path style="fill:none;stroke:#550340;stroke-width:3;stroke-linecap:round;stroke-linejoin:round;stroke-miterlimit:10;" d="
							M233.174,233.756c0,0-2.057,31.301,50.103,40.13c52.16,8.829,56.414-18.385,56.414-18.385l-7.448-3.576
							c0,0-46.27,39.4-83.52-14.58L233.174,233.756z"/>
					</g>
					<g>
						<g>
							<path style="fill:#A4BF00;" d="M133.163,203.456c0,0-42.752,2.898-33.332,28.984c9.42,26.086,31.158,1.449,31.158,24.637
								c0,23.188,14.492-4.348,22.463-0.725c7.971,3.623,22.463,26.811,29.709,0.725c7.246-26.086,31.883,28.984,53.621-2.898
								c21.738-31.883-11.594-40.578-11.594-40.578L133.163,203.456z"/>
							<path style="opacity:0.5;fill:#8C9300;" d="M234.228,244.734c23.494-14.791-6.18-25.655-6.18-25.655l-33.88-8.898
								l-61.004-6.725c0,0-12.172,0.827-22.096,5.56c6.211,15.713,28.131,5.712,25.615,19.003
								c-2.557,13.508,13.798-0.011,20.724,3.486c6.926,3.497,17.687,19.526,27.223,5.59
								C194.165,223.159,210.734,259.526,234.228,244.734z"/>
						</g>
						<path style="fill:none;stroke:#550340;stroke-width:3;stroke-linecap:round;stroke-linejoin:round;stroke-miterlimit:10;" d="
							M133.163,203.456c0,0-42.752,2.898-33.332,28.984c9.42,26.086,31.158,1.449,31.158,24.637c0,23.188,14.492-4.348,22.463-0.725
							c7.971,3.623,22.463,26.811,29.709,0.725c7.246-26.086,31.883,28.984,53.621-2.898c21.738-31.883-11.594-40.578-11.594-40.578
							L133.163,203.456z"/>
					</g>
					<g>
						<g>
							<path style="fill:#A4BF00;" d="M253.449,238.237c0,0,18.84,22.463,35.506,23.188c16.666,0.725,18.115-17.391,28.984,1.449
								c10.869,18.84,30.434,15.941,34.781,0.725c4.348-15.217,44.201,7.971,43.477-10.145
								c-0.725-18.115-53.621-41.303-53.621-41.303L253.449,238.237z"/>
							<path style="opacity:0.5;fill:#8C9300;" d="M342.576,212.151l-85.678,25.076c7.52,5.991,20.19,14.477,31.04,13.878
								c16.656-0.92,16.315-19.09,28.986-1.412c12.672,17.678,31.856,12.867,34.684-2.704c2.107-11.599,25.914-3.935,36.89-6.69
								C373.66,225.778,342.576,212.151,342.576,212.151z"/>
						</g>
						<path style="fill:none;stroke:#550340;stroke-width:3;stroke-linecap:round;stroke-linejoin:round;stroke-miterlimit:10;" d="
							M253.449,238.237c0,0,18.84,22.463,35.506,23.188c16.666,0.725,18.115-17.391,28.984,1.449
							c10.869,18.84,30.434,15.941,34.781,0.725c4.348-15.217,44.201,7.971,43.477-10.145
							c-0.725-18.115-53.621-41.303-53.621-41.303L253.449,238.237z"/>
					</g>
					<g>
						<g>
							<path style="fill:#EF1B23;" d="M129.54,201.282c0,0-34.781,22.463,9.42,39.129c44.201,16.666,102.17-8.695,71.012-34.781
								S129.54,201.282,129.54,201.282z"/>
							<path style="fill:#E27479;" d="M132.438,198.206c0,0-34.781,18.16,9.42,31.633c44.201,13.474,102.17-7.03,71.012-28.119
								C181.712,180.632,132.438,198.206,132.438,198.206z"/>
						</g>
						<g>
							
								<path style="fill:none;stroke:#550340;stroke-width:3;stroke-linecap:round;stroke-linejoin:round;stroke-miterlimit:10;" d="
								M129.54,201.282c0,0-34.781,22.463,9.42,39.129c44.201,16.666,102.17-8.695,71.012-34.781S129.54,201.282,129.54,201.282z"/>
							
								<path style="fill:none;stroke:#550340;stroke-width:3;stroke-linecap:round;stroke-linejoin:round;stroke-miterlimit:10;" d="
								M132.438,198.206c0,0-34.781,18.16,9.42,31.633c44.201,13.474,102.17-7.03,71.012-28.119
								C181.712,180.632,132.438,198.206,132.438,198.206z"/>
						</g>
					</g>
					<g>
						<g>
							<path style="fill:#EF1B23;" d="M389.174,226.699c0,0,23.076,30.18-18.979,35.21c-42.055,5.03-83.915-33.682-50.233-50.986
								C353.644,193.62,389.174,226.699,389.174,226.699z"/>
							<path style="fill:#E27479;" d="M387.59,223.029c0,0,24.288,26.051-16.868,28.018c-41.156,1.967-84.384-32.084-52.109-44.593
								C350.887,193.946,387.59,223.029,387.59,223.029z"/>
						</g>
						<g>
							
								<path style="fill:none;stroke:#550340;stroke-width:3;stroke-linecap:round;stroke-linejoin:round;stroke-miterlimit:10;" d="
								M389.174,226.699c0,0,23.076,30.18-18.979,35.21c-42.055,5.03-83.915-33.682-50.233-50.986
								C353.644,193.62,389.174,226.699,389.174,226.699z"/>
							
								<path style="fill:none;stroke:#550340;stroke-width:3;stroke-linecap:round;stroke-linejoin:round;stroke-miterlimit:10;" d="
								M387.59,223.029c0,0,24.288,26.051-16.868,28.018c-41.156,1.967-84.384-32.084-52.109-44.593
								C350.887,193.946,387.59,223.029,387.59,223.029z"/>
						</g>
					</g>
				</g>
				<g>
					<g>
						<g>
							<path style="fill:#FCCE7D;" d="M241.13,242.585c0,0-152.893-10.145-132.604-82.606
								c17.296-61.772,97.568-105.913,181.153-90.576c78.983,14.492,131.038,65.843,119.561,147.821
								C404.168,253.454,308.519,251.28,241.13,242.585z"/>
							<g>
								<path style="opacity:0.4;fill:#E8AF30;" d="M362.331,98.755c19.35,21.829,28.584,51.267,23.496,87.611
									c-4.425,31.605-87.861,29.709-146.646,22.123c0,0-133.372-8.849-115.674-72.059c1.503-5.369,3.56-10.582,6.103-15.609
									c-9.85,11.794-17.122,25.012-21.083,39.158C88.237,232.44,241.13,242.585,241.13,242.585
									c67.389,8.695,163.038,10.869,168.11-25.361C416.618,164.524,397.738,124.485,362.331,98.755z"/>
								<path style="fill:#E8AF30;" d="M409.24,207.803c-5.072,36.231-100.721,34.057-168.11,25.361
									c0,0-127.546-8.464-134.188-65.143c-7.23,65.178,134.188,74.563,134.188,74.563c67.389,8.695,163.038,10.869,168.11-25.361
									c1.303-9.306,1.771-18.209,1.489-26.717C410.55,196.113,410.07,201.874,409.24,207.803z"/>
							</g>
							<g style="opacity:0.5;">
								<path style="fill:#E8AF30;" d="M352.004,179.063c-6.017,0.416-5.382,9.609,0.635,9.194
									C358.657,187.84,358.022,178.647,352.004,179.063z"/>
								<path style="fill:#E8AF30;" d="M336.659,194.441c-6.017,0.416-5.382,9.609,0.635,9.194
									C343.312,203.219,342.677,194.025,336.659,194.441z"/>
								<path style="fill:#E8AF30;" d="M131.185,141.071c-4.669,0.322-4.176,7.456,0.493,7.134
									C136.347,147.882,135.854,140.749,131.185,141.071z"/>
								<path style="fill:#E8AF30;" d="M134.23,159.67c-4.669,0.322-4.176,7.456,0.493,7.134
									C139.392,166.481,138.899,159.348,134.23,159.67z"/>
								<path style="fill:#E8AF30;" d="M149.336,157.193c-4.669,0.323-4.176,7.456,0.493,7.134
									C154.498,164.004,154.006,156.87,149.336,157.193z"/>
								<g>
									<g>
										<path style="fill:#E8AF30;" d="M145.322,153.537c2.323,0,2.323-3.602,0-3.602
											C142.999,149.935,142.999,153.537,145.322,153.537L145.322,153.537z"/>
									</g>
								</g>
								<g>
									<g>
										<path style="fill:#E8AF30;" d="M336.618,189.375c2.994,0,2.994-4.642,0-4.642
											C333.624,184.732,333.624,189.375,336.618,189.375L336.618,189.375z"/>
									</g>
								</g>
								<g>
									<g>
										<path style="fill:#E8AF30;" d="M354.833,201.973c2.993,0,2.993-4.642,0-4.642
											C351.839,197.331,351.839,201.973,354.833,201.973L354.833,201.973z"/>
									</g>
								</g>
								<g>
									<g>
										<path style="fill:#E8AF30;" d="M317.214,202.878c2.994,0,2.994-4.642,0-4.642
											C314.221,198.236,314.221,202.878,317.214,202.878L317.214,202.878z"/>
									</g>
								</g>
								<g>
									<g>
										<path style="fill:#E8AF30;" d="M159.314,182.317c2.323,0,2.323-3.602,0-3.602
											C156.991,178.715,156.991,182.317,159.314,182.317L159.314,182.317z"/>
									</g>
								</g>
								<g>
									<g>
										<path style="fill:#E8AF30;" d="M208.989,196.633c4.307,0,4.307-6.678,0-6.678
											C204.683,189.955,204.683,196.633,208.989,196.633L208.989,196.633z"/>
									</g>
								</g>
								<g>
									<g>
										<path style="fill:#E8AF30;" d="M208.747,183.361c4.306,0,4.306-6.678,0-6.678S204.44,183.361,208.747,183.361
											L208.747,183.361z"/>
									</g>
								</g>
								<g>
									<g>
										<path style="fill:#E8AF30;" d="M177.589,179.014c4.306,0,4.306-6.678,0-6.678S173.282,179.014,177.589,179.014
											L177.589,179.014z"/>
									</g>
								</g>
								<g>
									<g>
										<path style="fill:#E8AF30;" d="M200.296,187.932c4.306,0,4.306-6.678,0-6.678
											C195.989,181.254,195.989,187.932,200.296,187.932L200.296,187.932z"/>
									</g>
								</g>
								<g>
									<g>
										<path style="fill:#E8AF30;" d="M360.805,153.893c3.609,0,3.609-5.597,0-5.597
											C357.195,148.296,357.195,153.893,360.805,153.893L360.805,153.893z"/>
									</g>
								</g>
								<g>
									<g>
										<path style="fill:#E8AF30;" d="M366.71,165.736c3.609,0,3.609-5.597,0-5.597C363.1,160.139,363.1,165.736,366.71,165.736
											L366.71,165.736z"/>
									</g>
								</g>
								<g>
									<g>
										<path style="fill:#E8AF30;" d="M370.111,157.705c3.609,0,3.609-5.597,0-5.597
											C366.502,152.108,366.502,157.705,370.111,157.705L370.111,157.705z"/>
									</g>
								</g>
								<g>
									<g>
										<path style="fill:#E8AF30;" d="M372.795,181.502c3.609,0,3.609-5.597,0-5.597
											C369.186,175.905,369.186,181.502,372.795,181.502L372.795,181.502z"/>
									</g>
								</g>
								<g>
									<g>
										<path style="fill:#E8AF30;" d="M260.099,203.802c3.609,0,3.609-5.597,0-5.597
											C256.49,198.205,256.49,203.802,260.099,203.802L260.099,203.802z"/>
									</g>
								</g>
								<g>
									<g>
										<path style="fill:#E8AF30;" d="M272.13,197.959c3.609,0,3.609-5.597,0-5.597
											C268.52,192.362,268.52,197.959,272.13,197.959L272.13,197.959z"/>
									</g>
								</g>
								<g>
									<g>
										<path style="fill:#E8AF30;" d="M144.406,170.978c1.161,0,1.161-1.801,0-1.801S143.245,170.978,144.406,170.978
											L144.406,170.978z"/>
									</g>
								</g>
								<g>
									<g>
										<path style="fill:#E8AF30;" d="M139.776,156.604c1.161,0,1.161-1.801,0-1.801
											C138.614,154.803,138.614,156.604,139.776,156.604L139.776,156.604z"/>
									</g>
								</g>
								<g>
									<g>
										<path style="fill:#E8AF30;" d="M345.365,192.691c1.497,0,1.497-2.321,0-2.321
											C343.868,190.369,343.868,192.691,345.365,192.691L345.365,192.691z"/>
									</g>
								</g>
								<g>
									<g>
										<path style="fill:#E8AF30;" d="M285.833,206.751c1.805,0,1.805-2.798,0-2.798
											C284.029,203.952,284.029,206.751,285.833,206.751L285.833,206.751z"/>
									</g>
								</g>
								<g>
									<g>
										<path style="fill:#E8AF30;" d="M293.965,201.734c1.805,0,1.805-2.798,0-2.798
											C292.16,198.936,292.16,201.734,293.965,201.734L293.965,201.734z"/>
									</g>
								</g>
								<g>
									<g>
										<path style="fill:#E8AF30;" d="M217.018,184.217c1.805,0,1.805-2.798,0-2.798
											C215.213,181.419,215.213,184.217,217.018,184.217L217.018,184.217z"/>
									</g>
								</g>
								<g>
									<g>
										<path style="fill:#E8AF30;" d="M222.284,194.991c1.805,0,1.805-2.798,0-2.798
											C220.479,192.193,220.479,194.991,222.284,194.991L222.284,194.991z"/>
									</g>
								</g>
								<g>
									<g>
										<path style="fill:#E8AF30;" d="M241.96,185.279c1.805,0,1.805-2.799,0-2.799
											C240.155,182.48,240.155,185.279,241.96,185.279L241.96,185.279z"/>
									</g>
								</g>
								<g>
									<g>
										<path style="fill:#E8AF30;" d="M354.923,157.355c1.805,0,1.805-2.798,0-2.798
											C353.119,154.557,353.119,157.355,354.923,157.355L354.923,157.355z"/>
									</g>
								</g>
								<g>
									<g>
										<path style="fill:#E8AF30;" d="M364.439,123.285c1.805,0,1.805-2.798,0-2.798
											C362.634,120.487,362.634,123.285,364.439,123.285L364.439,123.285z"/>
									</g>
								</g>
								<g>
									<g>
										<path style="fill:#E8AF30;" d="M368.695,135.799c1.805,0,1.805-2.798,0-2.798S366.89,135.799,368.695,135.799
											L368.695,135.799z"/>
									</g>
								</g>
								<g>
									<g>
										<path style="fill:#E8AF30;" d="M372.364,131.648c1.805,0,1.805-2.798,0-2.798S370.56,131.648,372.364,131.648
											L372.364,131.648z"/>
									</g>
								</g>
								<g>
									<g>
										<path style="fill:#E8AF30;" d="M366.849,184.74c1.497,0,1.497-2.321,0-2.321
											C365.352,182.419,365.352,184.74,366.849,184.74L366.849,184.74z"/>
									</g>
								</g>
							</g>
							<g>
								<path style="opacity:0.5;fill:#FFDE83;" d="M293.088,81.157c0,0-60.663-15.471-116.218,18.944
									c-55.554,34.416-22.505,66.104,23.893,59.569c46.399-6.535,127.36,11.939,138.43-12.41
									C350.264,122.911,332.716,89.253,293.088,81.157z"/>
								<g>
									<path style="fill:#FCCE7D;" d="M304.297,130.095c-5.624-2.179-8.954,6.414-3.33,8.593
										C306.591,140.868,309.921,132.275,304.297,130.095z"/>
									<path style="fill:#FCCE7D;" d="M283.873,137.501c-5.624-2.179-8.954,6.414-3.33,8.593
										C286.168,148.273,289.497,139.68,283.873,137.501z"/>
									<g>
										<path style="fill:#FCCE7D;" d="M285.987,132.896c2.71,1.271,4.682-2.931,1.972-4.203
											C285.249,127.422,283.277,131.625,285.987,132.896L285.987,132.896z"/>
									</g>
									<g>
										<path style="fill:#FCCE7D;" d="M297.128,152.038c2.71,1.271,4.682-2.931,1.971-4.203
											C296.389,146.564,294.417,150.767,297.128,152.038L297.128,152.038z"/>
									</g>
									<g>
										<path style="fill:#FCCE7D;" d="M322.954,111.046c3.268,1.533,5.645-3.534,2.377-5.067
											C322.063,104.446,319.686,109.513,322.954,111.046L322.954,111.046z"/>
									</g>
									<g>
										<path style="fill:#FCCE7D;" d="M323.27,124.276c3.268,1.533,5.645-3.534,2.377-5.067
											C322.379,117.676,320.002,122.743,323.27,124.276L323.27,124.276z"/>
									</g>
									<g>
										<path style="fill:#FCCE7D;" d="M329.76,118.45c3.268,1.533,5.645-3.534,2.377-5.067
											C328.87,111.85,326.493,116.917,329.76,118.45L329.76,118.45z"/>
									</g>
									<g>
										<path style="fill:#FCCE7D;" d="M322.084,141.134c3.268,1.533,5.645-3.534,2.377-5.067
											C321.193,134.534,318.816,139.601,322.084,141.134L322.084,141.134z"/>
									</g>
									<g>
										<path style="fill:#FCCE7D;" d="M292.498,139.613c1.355,0.636,2.341-1.466,0.986-2.101
											C292.129,136.876,291.143,138.978,292.498,139.613L292.498,139.613z"/>
									</g>
									<g>
										<path style="fill:#FCCE7D;" d="M316.159,111.683c1.634,0.766,2.822-1.767,1.188-2.534
											C315.713,108.383,314.525,110.916,316.159,111.683L316.159,111.683z"/>
									</g>
									<g>
										<path style="fill:#FCCE7D;" d="M315.325,141.54c1.355,0.636,2.341-1.466,0.986-2.101
											C314.955,138.803,313.97,140.904,315.325,141.54L315.325,141.54z"/>
									</g>
								</g>
							</g>
						</g>
						<g>
							<path style="fill:#FFDE83;" d="M234.577,83.25c0,0,3.904-9.761,8.877-7.57C248.428,77.871,232.65,90.32,234.577,83.25z"/>
							<path style="fill:#FFDE83;" d="M211.803,70.584c0,0,8.38-6.349,11.51-1.906C226.444,73.12,206.506,75.647,211.803,70.584z"/>
							<path style="fill:#FFDE83;" d="M319.44,79.289c0,0-7.983,0.895-8.341-4.37C310.741,69.655,324.89,77.862,319.44,79.289z"/>
							<path style="fill:#FFDE83;" d="M270.167,78.353c0,0-2.674,7.575-7.568,5.602C257.705,81.982,271.258,72.825,270.167,78.353z"
								/>
							<path style="fill:#FFDE83;" d="M196.619,83.788c0,0-2.674,7.575-7.568,5.602C184.157,87.417,197.71,78.26,196.619,83.788z"/>
							<path style="fill:#FFDE83;" d="M231.4,96.831c0,0-2.674,7.575-7.568,5.602C218.938,100.46,232.491,91.303,231.4,96.831z"/>
							<path style="fill:#FFDE83;" d="M245.135,97.757c0,0,8.38-6.349,11.51-1.906C259.776,100.293,239.838,102.82,245.135,97.757z"
								/>
							<path style="fill:#FFDE83;" d="M263.392,70.975c0,0-10.492-0.663-9.963-6.072C253.959,59.495,270.709,70.599,263.392,70.975z
								"/>
							<path style="fill:#FFDE83;" d="M337.665,97.786c0,0-10.492-0.663-9.963-6.072C328.231,86.305,344.982,97.41,337.665,97.786z"
								/>
							<path style="fill:#FFDE83;" d="M285.332,90.07c0,0-9.62,4.239-11.639-0.806S291.655,86.369,285.332,90.07z"/>
							<path style="fill:#FFDE83;" d="M296.925,71.23c0,0-9.62,4.239-11.639-0.806C283.267,65.378,303.249,67.529,296.925,71.23z"/>
							<path style="fill:#FFDE83;" d="M283.587,102.165c0,0,4.596-6.96,8.721-3.989
								C296.433,101.148,281.053,107.423,283.587,102.165z"/>
							<path style="fill:#FFDE83;" d="M304.25,86.749c0,0,7.086-4.399,9.59,0.026C316.344,91.2,299.749,90.464,304.25,86.749z"/>
							<path style="fill:#FFDE83;" d="M214.164,94.838c0,0-10.5-0.535-10.036-5.95C204.591,83.474,221.477,94.372,214.164,94.838z"
								/>
						</g>
					</g>
					<g>
						<g>
							
								<path style="fill:none;stroke:#550340;stroke-width:3;stroke-linecap:round;stroke-linejoin:round;stroke-miterlimit:10;" d="
								M319.255,77.463c61.126,21.144,98.479,69.063,88.581,139.761c-5.072,36.231-100.721,34.057-168.11,25.361
								c0,0-152.893-10.145-132.604-82.606c11.619-41.497,51.659-75.038,102.031-87.935"/>
							
								<path style="fill:none;stroke:#550340;stroke-width:3;stroke-linecap:round;stroke-linejoin:round;stroke-miterlimit:10;" d="
								M296.678,70.799c4.946,1.067,9.778,2.284,14.485,3.65"/>
							
								<path style="fill:none;stroke:#550340;stroke-width:3;stroke-linecap:round;stroke-linejoin:round;stroke-miterlimit:10;" d="
								M263.01,66.47c7.355,0.275,14.787,0.991,22.254,2.177"/>
							
								<path style="fill:none;stroke:#550340;stroke-width:3;stroke-linecap:round;stroke-linejoin:round;stroke-miterlimit:10;" d="
								M223.715,69.192c9.708-1.73,19.721-2.703,29.923-2.836"/>
						</g>
						<g>
							
								<path style="fill:none;stroke:#550340;stroke-width:3;stroke-linecap:round;stroke-linejoin:round;stroke-miterlimit:10;" d="
								M234.577,83.25c0,0,3.904-9.761,8.877-7.57C248.428,77.871,232.65,90.32,234.577,83.25z"/>
							
								<path style="fill:none;stroke:#550340;stroke-width:3;stroke-linecap:round;stroke-linejoin:round;stroke-miterlimit:10;" d="
								M211.803,70.584c0,0,8.38-6.349,11.51-1.906C226.444,73.12,206.506,75.647,211.803,70.584z"/>
							
								<path style="fill:none;stroke:#550340;stroke-width:3;stroke-linecap:round;stroke-linejoin:round;stroke-miterlimit:10;" d="
								M319.44,79.289c0,0-7.983,0.895-8.341-4.37C310.741,69.655,324.89,77.862,319.44,79.289z"/>
							
								<path style="fill:none;stroke:#550340;stroke-width:3;stroke-linecap:round;stroke-linejoin:round;stroke-miterlimit:10;" d="
								M270.167,78.353c0,0-2.674,7.575-7.568,5.602C257.705,81.982,271.258,72.825,270.167,78.353z"/>
							
								<path style="fill:none;stroke:#550340;stroke-width:3;stroke-linecap:round;stroke-linejoin:round;stroke-miterlimit:10;" d="
								M196.619,83.788c0,0-2.674,7.575-7.568,5.602C184.157,87.417,197.71,78.26,196.619,83.788z"/>
							
								<path style="fill:none;stroke:#550340;stroke-width:3;stroke-linecap:round;stroke-linejoin:round;stroke-miterlimit:10;" d="
								M231.4,96.831c0,0-2.674,7.575-7.568,5.602C218.938,100.46,232.491,91.303,231.4,96.831z"/>
							
								<path style="fill:none;stroke:#550340;stroke-width:3;stroke-linecap:round;stroke-linejoin:round;stroke-miterlimit:10;" d="
								M245.135,97.757c0,0,8.38-6.349,11.51-1.906C259.776,100.293,239.838,102.82,245.135,97.757z"/>
							
								<path style="fill:none;stroke:#550340;stroke-width:3;stroke-linecap:round;stroke-linejoin:round;stroke-miterlimit:10;" d="
								M263.392,70.975c0,0-10.492-0.663-9.963-6.072C253.959,59.495,270.709,70.599,263.392,70.975z"/>
							
								<path style="fill:none;stroke:#550340;stroke-width:3;stroke-linecap:round;stroke-linejoin:round;stroke-miterlimit:10;" d="
								M337.665,97.786c0,0-10.492-0.663-9.963-6.072C328.231,86.305,344.982,97.41,337.665,97.786z"/>
							
								<path style="fill:none;stroke:#550340;stroke-width:3;stroke-linecap:round;stroke-linejoin:round;stroke-miterlimit:10;" d="
								M285.332,90.07c0,0-9.62,4.239-11.639-0.806S291.655,86.369,285.332,90.07z"/>
							
								<path style="fill:none;stroke:#550340;stroke-width:3;stroke-linecap:round;stroke-linejoin:round;stroke-miterlimit:10;" d="
								M296.925,71.23c0,0-9.62,4.239-11.639-0.806C283.267,65.378,303.249,67.529,296.925,71.23z"/>
							
								<path style="fill:none;stroke:#550340;stroke-width:3;stroke-linecap:round;stroke-linejoin:round;stroke-miterlimit:10;" d="
								M283.587,102.165c0,0,4.596-6.96,8.721-3.989C296.433,101.148,281.053,107.423,283.587,102.165z"/>
							
								<path style="fill:none;stroke:#550340;stroke-width:3;stroke-linecap:round;stroke-linejoin:round;stroke-miterlimit:10;" d="
								M304.25,86.749c0,0,7.086-4.399,9.59,0.026C316.344,91.2,299.749,90.464,304.25,86.749z"/>
							
								<path style="fill:none;stroke:#550340;stroke-width:3;stroke-linecap:round;stroke-linejoin:round;stroke-miterlimit:10;" d="
								M214.164,94.838c0,0-10.5-0.535-10.036-5.95C204.591,83.474,221.477,94.372,214.164,94.838z"/>
						</g>
					</g>
				</g>
			</g>
			<g>
				<g>
					<g>
						<g>
							
								<ellipse transform="matrix(0.536 -0.8442 0.8442 0.536 -42.1326 259.2731)" style="fill:#FFFFFF;" cx="214.802" cy="167.966" rx="24.975" ry="24.975"/>
							<g>
								
									<ellipse transform="matrix(0.4212 -0.907 0.907 0.4212 -27.6603 297.1118)" style="fill:#550340;" cx="218.946" cy="170.227" rx="18.388" ry="18.388"/>
								<path style="fill:#FFFFFF;" d="M199.633,163.724c0.639,5.267,5.427,9.018,10.693,8.379
									c5.266-0.639,9.018-5.427,8.378-10.693c-0.639-5.267-5.427-9.018-10.693-8.379
									C202.745,153.67,198.994,158.457,199.633,163.724z"/>
							</g>
							
								<ellipse transform="matrix(0.536 -0.8442 0.8442 0.536 -42.1326 259.2731)" style="fill:none;stroke:#550340;stroke-width:3;stroke-miterlimit:10;" cx="214.802" cy="167.966" rx="24.975" ry="24.975"/>
						</g>
						<g>
							<path style="fill:#550340;" d="M238.998,142.468c0,0-0.157-0.189-0.452-0.543c-0.289-0.345-0.693-0.912-1.239-1.526
								c-0.267-0.303-0.563-0.639-0.885-1.005c-0.339-0.348-0.705-0.724-1.096-1.125c-0.785-0.784-1.695-1.619-2.728-2.436
								c-0.498-0.426-1.079-0.799-1.632-1.218c-0.595-0.374-1.174-0.79-1.815-1.149c-1.258-0.749-2.644-1.4-4.086-2.001
								c-1.469-0.552-2.999-1.039-4.588-1.402c-1.597-0.325-3.23-0.577-4.879-0.669c-1.649-0.096-3.3-0.026-4.923,0.114
								c-1.619,0.186-3.196,0.487-4.716,0.874c-1.501,0.432-2.951,0.922-4.285,1.523c-1.336,0.594-2.58,1.255-3.693,1.957
								c-1.121,0.693-2.119,1.418-2.989,2.107c-0.435,0.355-0.843,0.687-1.219,0.994c-0.366,0.331-0.701,0.636-1.005,0.911
								c-0.617,0.555-1.063,1.038-1.395,1.355c-0.335,0.319-0.513,0.489-0.513,0.489s0.056-0.238,0.162-0.685
								c0.139-0.43,0.239-1.133,0.581-1.922c0.161-0.406,0.339-0.856,0.534-1.346c0.209-0.487,0.496-0.977,0.778-1.528
								c0.599-1.073,1.384-2.24,2.383-3.418c0.48-0.612,1.081-1.143,1.661-1.757c0.621-0.559,1.282-1.132,1.998-1.673
								c1.437-1.079,3.093-2.041,4.901-2.848c1.821-0.762,3.785-1.399,5.841-1.752c2.054-0.362,4.18-0.465,6.298-0.381
								c2.114,0.158,4.213,0.507,6.212,1.1c1.999,0.592,3.882,1.439,5.601,2.409c1.704,1.007,3.238,2.152,4.542,3.388
								c0.649,0.619,1.243,1.261,1.794,1.889c0.507,0.675,1.045,1.27,1.45,1.934c0.86,1.282,1.506,2.53,1.98,3.664
								c0.219,0.58,0.446,1.096,0.601,1.607c0.14,0.514,0.27,0.986,0.386,1.413c0.127,0.418,0.194,0.789,0.231,1.12
								c0.047,0.328,0.088,0.608,0.121,0.834C238.968,142.224,238.998,142.468,238.998,142.468z"/>
						</g>
					</g>
					<g>
						<g>
							
								<ellipse transform="matrix(0.6019 -0.7986 0.7986 0.6019 -22.6077 311.6283)" style="fill:#FFFFFF;" cx="301.231" cy="178.488" rx="24.975" ry="24.975"/>
							<g>
								
									<ellipse transform="matrix(0.7827 -0.6224 0.6224 0.7827 -46.1389 229.3475)" style="fill:#550340;" cx="305.375" cy="180.749" rx="18.388" ry="18.388"/>
								<path style="fill:#FFFFFF;" d="M286.063,174.245c0.639,5.267,5.427,9.018,10.693,8.379
									c5.266-0.639,9.018-5.427,8.378-10.693c-0.639-5.266-5.427-9.018-10.693-8.379
									C289.175,164.191,285.423,168.979,286.063,174.245z"/>
							</g>
							
								<ellipse transform="matrix(0.6019 -0.7986 0.7986 0.6019 -22.6077 311.6283)" style="fill:none;stroke:#550340;stroke-width:3;stroke-miterlimit:10;" cx="301.231" cy="178.488" rx="24.975" ry="24.975"/>
						</g>
						<g>
							<path style="fill:#550340;" d="M330.233,149.913c0,0-0.15-0.195-0.43-0.56c-0.276-0.356-0.656-0.939-1.178-1.573
								c-0.255-0.314-0.538-0.661-0.845-1.039c-0.325-0.361-0.676-0.751-1.051-1.167c-0.754-0.814-1.63-1.684-2.631-2.541
								c-0.481-0.445-1.047-0.841-1.583-1.281c-0.579-0.397-1.142-0.836-1.768-1.219c-1.228-0.798-2.587-1.502-4.005-2.159
								c-1.446-0.609-2.956-1.156-4.53-1.58c-1.583-0.387-3.205-0.703-4.849-0.859c-1.644-0.16-3.296-0.155-4.923-0.079
								c-1.625,0.123-3.212,0.361-4.746,0.689c-1.517,0.373-2.984,0.806-4.341,1.354c-1.358,0.542-2.627,1.153-3.767,1.811
								c-1.147,0.649-2.173,1.334-3.069,1.989c-0.449,0.337-0.869,0.653-1.257,0.945c-0.378,0.317-0.726,0.608-1.039,0.871
								c-0.638,0.53-1.103,0.996-1.446,1.299c-0.347,0.306-0.532,0.469-0.532,0.469s0.065-0.236,0.188-0.678
								c0.156-0.425,0.283-1.123,0.656-1.898c0.177-0.4,0.373-0.842,0.586-1.324c0.228-0.479,0.534-0.957,0.837-1.496
								c0.641-1.049,1.47-2.185,2.515-3.322c0.503-0.592,1.124-1.1,1.728-1.691c0.642-0.535,1.325-1.081,2.062-1.594
								c1.479-1.022,3.17-1.918,5.008-2.655c1.849-0.69,3.837-1.25,5.905-1.522c2.066-0.281,4.195-0.301,6.308-0.134
								c2.106,0.24,4.19,0.672,6.165,1.342c1.975,0.669,3.822,1.59,5.502,2.626c1.663,1.073,3.151,2.277,4.406,3.563
								c0.625,0.643,1.192,1.309,1.718,1.957c0.48,0.695,0.995,1.31,1.373,1.989c0.809,1.315,1.406,2.587,1.835,3.739
								c0.196,0.588,0.403,1.113,0.537,1.63c0.12,0.519,0.231,0.996,0.331,1.427c0.111,0.423,0.163,0.796,0.187,1.128
								c0.035,0.33,0.064,0.611,0.088,0.838C330.213,149.668,330.233,149.913,330.233,149.913z"/>
						</g>
					</g>
					<g>
						<path style="fill:#CE686A;" d="M206.75,199.896c-0.314,3.244-6.501,5.299-13.818,4.59c-7.317-0.709-12.994-3.913-12.68-7.157
							c0.314-3.244,6.501-5.298,13.818-4.59C201.387,193.448,207.064,196.652,206.75,199.896z"/>
						<path style="fill:#CE686A;" d="M329.557,214.02c-0.314,3.244-6.501,5.299-13.818,4.59c-7.317-0.709-12.994-3.913-12.68-7.157
							s6.501-5.299,13.818-4.59C324.194,207.572,329.871,210.777,329.557,214.02z"/>
					</g>
				</g>
				<g>
					<g>
						<path style="fill:#CE686A;" d="M236.462,201.979c0,0-5.67,15.683,12.534,18.231c18.658,2.612,24.851-11.607,19.775-17.182
							c-5.076-5.574-12.048,1.688-18.247-2.952C244.325,195.437,239.532,196.354,236.462,201.979z"/>
						<path style="fill:#801132;" d="M249.295,207.063c-5.292,0.981-9.015,3.415-12.042,6.638
							c-3.106-5.295-0.791-11.722-0.791-11.722c3.07-5.625,7.864-6.542,14.063-1.902c6.199,4.64,13.171-2.622,18.247,2.952
							c2.275,2.498,2.278,6.73-0.081,10.408C264.158,207.686,256.802,205.671,249.295,207.063z"/>
					</g>
					<path style="fill:none;stroke:#550340;stroke-width:3;stroke-miterlimit:10;" d="M236.462,201.979
						c0,0-5.67,15.683,12.534,18.231c18.658,2.612,24.851-11.607,19.775-17.182c-5.076-5.574-12.048,1.688-18.247-2.952
						C244.325,195.437,239.532,196.354,236.462,201.979z"/>
				</g>
			</g>
			<g>
				<g>
					<g>
						<path style="fill:#FCCE7D;" d="M399.172,203.525c0,0,39.975-4.036,48.412,23.751c7.902,26.024-41.081,40.167-41.081,40.167
							l-0.587-6.398c0,0,33.921-17.566,29.006-29.676c-5.932-14.617-33.419-8.967-33.419-8.967L399.172,203.525z"/>
						<path style="opacity:0.4;fill:#E8AF30;" d="M399.172,203.525c0,0,39.975-4.036,48.412,23.751
							c7.902,26.024-41.081,40.167-41.081,40.167l-0.587-6.398c0,0,33.921-17.566,29.006-29.676
							c-5.932-14.617-33.419-8.967-33.419-8.967L399.172,203.525z"/>
					</g>
					
						<path style="fill:none;stroke:#550340;stroke-width:3.2487;stroke-linecap:round;stroke-linejoin:round;stroke-miterlimit:10;" d="
						M399.172,203.525c0,0,39.975-4.036,48.412,23.751c7.902,26.024-41.081,40.167-41.081,40.167l-0.587-6.398
						c0,0,33.921-17.566,29.006-29.676c-5.932-14.617-33.419-8.967-33.419-8.967"/>
				</g>
				<g>
					<g>
						<path style="fill:#FFFFFF;" d="M419.166,269.525c0,0-1.714-18.037-7.807-18.703c-6.093-0.666-5.293,7.683-5.293,7.683
							s-2.319-14.399-19.347-6.114c-14.48,7.046-10.901,16.782,3.065,7.915c0,0-11.723,4.028-10.027,8.964
							c1.696,4.936,13.506-0.847,13.506-0.847s-13.282,5.461-8.783,9.572c3.017,2.758,12.147-2.794,12.147-2.794
							s3.576,7.394,9.119,4.455c5.543-2.94,5.072-9.331,5.072-9.331S416.668,278.316,419.166,269.525z"/>
						<g>
							<path style="opacity:0.3;fill:#E9BF9A;" d="M417.759,262.42c-2.498,8.792-8.349,0.799-8.349,0.799s0.472,6.392-5.072,9.331
								s-9.119-4.455-9.119-4.455s-4.01,2.437-7.593,3.279c-2.955,1.919-5.515,4.456-3.147,6.62
								c3.017,2.758,12.147-2.794,12.147-2.794s3.576,7.394,9.119,4.455c5.543-2.94,5.072-9.331,5.072-9.331
								s5.851,7.992,8.349-0.799c0,0-0.445-4.668-1.683-9.342C417.676,261.548,417.759,262.42,417.759,262.42z"/>
						</g>
					</g>
					
						<path style="fill:none;stroke:#550340;stroke-width:3.2487;stroke-linecap:round;stroke-linejoin:round;stroke-miterlimit:10;" d="
						M419.166,269.525c0,0-1.714-18.037-7.807-18.703c-6.093-0.666-5.293,7.683-5.293,7.683s-2.319-14.399-19.347-6.114
						c-14.48,7.046-10.901,16.782,3.065,7.915c0,0-11.723,4.028-10.027,8.964c1.696,4.936,13.506-0.847,13.506-0.847
						s-13.282,5.461-8.783,9.572c3.017,2.758,12.147-2.794,12.147-2.794s3.576,7.394,9.119,4.455
						c5.543-2.94,5.072-9.331,5.072-9.331S416.668,278.316,419.166,269.525z"/>
				</g>
			</g>
		</g>
	</g>
</g>
</svg>
