<?xml version="1.0" encoding="utf-8"?>
<!-- Generator: Adobe Illustrator 27.5.0, SVG Export Plug-In . SVG Version: 6.00 Build 0)  -->
<svg version="1.1" xmlns="http://www.w3.org/2000/svg" xmlns:xlink="http://www.w3.org/1999/xlink" x="0px" y="0px"
	 viewBox="0 0 3710 3710" style="enable-background:new 0 0 3710 3710;" xml:space="preserve">
<g id="Background">
	<g>
		<g>
			<rect style="fill:#FFFFFF;" width="3710" height="3710"/>
		</g>
	</g>
</g>
<g id="Illustration">
	<g>
		<g>
			<g>
				<defs>
					<path id="SVGID_1_" d="M2254.445,2648.217l259.775,71.005c0,0,85.325-119.893,47.369-231.338
						c-77.441-227.382,127.113-279.337,209.532-313.915c124.296-52.146,211.087-152.307,74.252-243.642
						s78.231-283.305,291.105-338.59c208.312-54.1,232.346-455.617-229.272-379.921c-275.677,45.205-308.306,315.47-357.23,448.034
						s-253.953,88.598-230.177,273.375c20.31,157.833,104.245,291.814-7.99,365.831
						C2199.577,2373.072,2160.867,2479.875,2254.445,2648.217z"/>
				</defs>
				<clipPath id="SVGID_00000132800650909460426790000014810423039618751660_">
					<use xlink:href="#SVGID_1_"  style="overflow:visible;"/>
				</clipPath>
				
					<linearGradient id="SVGID_00000016063184030401986210000014685913997333594038_" gradientUnits="userSpaceOnUse" x1="5084.5947" y1="601.2651" x2="4548.4658" y2="2125.0015" gradientTransform="matrix(0.9646 0.2637 -0.2637 0.9646 -1618.5698 -658.8298)">
					<stop  offset="0" style="stop-color:#AA80F9"/>
					<stop  offset="0.9964" style="stop-color:#6165D7"/>
				</linearGradient>
				
					<path style="clip-path:url(#SVGID_00000132800650909460426790000014810423039618751660_);fill:url(#SVGID_00000016063184030401986210000014685913997333594038_);" d="
					M2254.445,2648.217l259.775,71.005c0,0,85.325-119.893,47.369-231.338c-77.441-227.382,127.113-279.337,209.532-313.915
					c124.296-52.146,197.717-143.35,92.942-244.169c-118.547-114.072,59.542-282.777,272.416-338.062
					c208.312-54.1,232.346-455.617-229.272-379.921c-275.677,45.205-308.306,315.47-357.23,448.034s-253.953,88.598-230.177,273.375
					c20.31,157.833,104.245,291.814-7.99,365.831C2199.577,2373.072,2160.867,2479.875,2254.445,2648.217z"/>
				<g style="opacity:0.9;clip-path:url(#SVGID_00000132800650909460426790000014810423039618751660_);">
					<path style="fill:#BEB8F2;" d="M2360.287,2703.059l5.665,0.486c0.301-3.508,31.682-354.659,167.756-693.388
						c125.359-312.061,367.815-677.126,810.971-644.148l0.423-5.669c-197.272-14.682-371.853,46.924-518.894,183.104
						c-117.461,108.785-217.662,265.132-297.819,464.7C2392.025,2347.653,2360.59,2699.543,2360.287,2703.059z"/>
					<path style="fill:#BEB8F2;" d="M2767.22,1603.003l5.629,0.808c26.958-187.294,166.292-425.727,167.695-428.113l-4.899-2.885
						C2934.236,1175.211,2794.337,1414.611,2767.22,1603.003z"/>
					<path style="fill:#BEB8F2;" d="M2867.681,1514.952c216.051-64.56,373.448,37.775,375.011,38.816l3.151-4.731
						c-1.586-1.06-161.09-104.883-379.789-39.533L2867.681,1514.952z"/>
					<path style="fill:#BEB8F2;" d="M2456.812,2236.452c131.99-241.8,500.984-209.092,504.553-208.473l1.335-5.521
						c-3.444-0.94-377.716-32.678-510.878,211.269L2456.812,2236.452z"/>
					<path style="fill:#BEB8F2;" d="M2485.065,2126.428l5.677,0.35c10.848-175.452-138.01-338.905-139.516-340.536l-4.178,3.855
						C2348.539,1791.712,2495.767,1953.425,2485.065,2126.428z"/>
					<path style="fill:#BEB8F2;" d="M2372.106,2648.396c35.416-98.475,200.878-138.889,202.544-139.287l-1.315-5.529
						c-6.927,1.646-170.119,41.511-206.578,142.893L2372.106,2648.396z"/>
					<path style="fill:#BEB8F2;" d="M2378.419,2565.141l5.659,0.554c8.072-82.35-86.898-202.503-118.106-241.986
						c-4.41-5.58-8.217-10.397-8.726-11.388l-5.094,2.525c0.698,1.409,3.22,4.618,9.36,12.388
						C2292.368,2366.272,2386.268,2485.072,2378.419,2565.141z"/>
				</g>
			</g>
			<g>
				
					<linearGradient id="SVGID_00000083790368437283372050000007232655063322207880_" gradientUnits="userSpaceOnUse" x1="-2226.9038" y1="873.938" x2="-1662.1422" y2="2357.8977" gradientTransform="matrix(-0.9755 0.2199 0.2199 0.9755 127.9268 129.15)">
					<stop  offset="0" style="stop-color:#AA80F9"/>
					<stop  offset="0.9964" style="stop-color:#6165D7"/>
				</linearGradient>
				<path style="fill:url(#SVGID_00000083790368437283372050000007232655063322207880_);" d="M2523.814,1639.379
					c41.863,44.27,33.259,102.727,20.406,144.053c-5.627,1.615-8.453,3.979-13.751,6.857
					c-47.817,25.981-73.753,26.876-124.927,45.044c-11.015,3.91-46.837,5.555-61.516,5.288l-27.36-0.936
					c0,0-83.146-112.927-24.487-167.04s-6.703-171.383-33.673-237.776c-16.562-40.77-11.076-64.721-14.756-80.679
					c-38.961-168.921-103.457-203.414-82.383-266.127c23.264-69.23,108.522-47.011,137.808-120.986
					c33.069-83.532-53.441-167.945-4.483-240.001c8.394-12.353,17.354-24.818,34.121-35.578
					c41.387-26.559,85.917-10.971,107.294-57.702c42.967-93.93,142.28-151.186,230.576-91.73
					c87.143,58.68,57.476,232.532-95.893,408.635c-94.792,137.673-87.264,168.806-54.151,240.472
					c23.191,50.198,119.325,170.935,59.511,246.723C2516.336,1513.686,2475.955,1588.771,2523.814,1639.379z"/>
				<g>
					<defs>
						<path id="SVGID_00000168099672157812020240000013518002014990326691_" d="M2523.97,1834.984l-201.695,8.079
							c0,0-88.756-116.304-30.096-170.418c58.66-54.114-6.702-171.383-33.673-237.776
							c-73.177-180.141,148.088-224.033,74.122-462.785c-19.673-63.501-80.188-178.164-37.936-245.007
							c48.138-76.153,113.924-33.183,141.415-93.281c42.967-93.93,142.281-151.185,230.576-91.73
							c87.143,58.68,57.477,232.532-95.891,408.635c-94.793,137.674-87.264,168.806-54.153,240.472
							c23.192,50.198,119.325,170.936,59.511,246.724c-59.814,75.788-100.194,150.873-52.337,201.482
							C2596.634,1716.386,2523.97,1834.984,2523.97,1834.984z"/>
					</defs>
					<clipPath id="SVGID_00000144338840744073198810000015855689281891397054_">
						<use xlink:href="#SVGID_00000168099672157812020240000013518002014990326691_"  style="overflow:visible;"/>
					</clipPath>
					<g style="opacity:0.5;clip-path:url(#SVGID_00000144338840744073198810000015855689281891397054_);">
						<path style="fill:#FCFDFE;" d="M2433.357,1829.633l-3.951,0.631c-3.691-21.783-7.123-43.798-10.201-65.434
							c-22.773-160.193-28.565-316.795-17.212-465.461c9.621-125.969,31.656-248.015,65.493-362.747
							c27.212-92.267,62.17-180.327,103.905-261.734c29.34-57.227,61.698-110.601,96.18-158.636
							c6.008-8.372,12.651-16.629,19.076-24.616c8.561-10.639,17.413-21.641,24.826-33l3.412,1.886
							c-7.515,11.515-16.427,22.591-25.045,33.304c-6.394,7.946-13.004,16.163-18.951,24.45
							c-34.374,47.884-66.636,101.098-95.892,158.164c-41.632,81.205-76.506,169.056-103.656,261.11
							c-33.768,114.496-55.758,236.298-65.36,362.024c-11.335,148.415-5.551,304.768,17.188,464.712
							C2426.243,1785.894,2429.67,1807.878,2433.357,1829.633z"/>
						<path style="fill:#FCFDFE;" d="M2436.376,1078.607l-3.95-0.529c27.214-157.615-113.566-395.158-114.992-397.538l3.504-1.841
							C2322.37,681.091,2463.808,919.731,2436.376,1078.607z"/>
						<path style="fill:#FCFDFE;" d="M2401.819,1525.1l-3.996-0.099c5.015-108.925,181.799-241.56,183.583-242.888l2.473,2.882
							C2582.108,1286.311,2406.755,1417.877,2401.819,1525.1z"/>
						<path style="fill:#FCFDFE;" d="M2404.731,1587.047l-3.964,0.556c-10.328-70.321-65.011-160.511-153.977-253.951
							c-4.474-4.699-4.474-4.699-4.586-5.394l3.958-0.602l-1.979,0.301l1.718-0.961c0.259,0.345,1.947,2.119,3.906,4.175
							C2339.28,1425.145,2394.3,1516.016,2404.731,1587.047z"/>
						<path style="fill:#FCFDFE;" d="M2427.228,1789.783l-3.951-0.515c13.051-77.584,121.567-137.229,122.66-137.822l1.979,3.195
							C2546.838,1655.226,2439.981,1713.976,2427.228,1789.783z"/>
						<path style="fill:#FCFDFE;" d="M2427.63,1831.542c-32.814-54.873-83.839-102.553-155.989-145.762l2.208-3.128
							c72.703,43.543,124.151,91.645,157.286,147.052L2427.63,1831.542z"/>
						<path style="fill:#FCFDFE;" d="M2551.261,724.747l-3.907-0.734c20.384-86.926,20.146-182.314,20.067-213.659
							c-0.019-7.588-0.016-10.259,0.159-11.191l3.94,0.582c-0.124,0.714-0.113,5.051-0.098,10.543
							C2571.5,541.732,2571.738,637.424,2551.261,724.747z"/>
						<path style="fill:#FCFDFE;" d="M2495.655,861.864l-3.483-1.773c44.063-73.057,216.949-119.663,224.288-121.612l1.044,3.566
							C2715.723,742.518,2538.894,790.172,2495.655,861.864z"/>
					</g>
				</g>
			</g>
			<g>
				
					<linearGradient id="SVGID_00000055688114370674717480000003323028878588941975_" gradientUnits="userSpaceOnUse" x1="3469.3752" y1="914.6375" x2="4229.6753" y2="2166.2876" gradientTransform="matrix(-0.9932 0.1164 0.1164 0.9932 6047.0449 -181.409)">
					<stop  offset="0.0036" style="stop-color:#E38DDD"/>
					<stop  offset="1" style="stop-color:#9571F6"/>
				</linearGradient>
				<path style="fill:url(#SVGID_00000055688114370674717480000003323028878588941975_);" d="M2523.869,2223.033
					c-13.838-0.115-6.096-72.375-56.414-157.749c-12.571-21.329-73.066-142.42-174.496-134.051
					c-19.689,1.624-39.379,3.247-59.068,4.871c-22.083-42.048-35.105-85.769,22.39-109.679
					c89.289-37.131,71.125-191.339,38.474-242.796c-40.41-63.689-131.28-213.81,5.801-273.263
					c114.119-49.495,198.481-59.427,187.659-204.764c-10.821-145.339,60.741-245.259,200.624-253.054
					c147.205-8.203,242.616-205.726,370.368-158.509c222.599,82.276,75.953,422.69-165.31,544.776
					c-241.261,122.086-84.429,191.106-61.927,308.433c1.472,11.01,2.904,28.192,0.746,48.794
					c-13.294,126.834-139.731,163.377-219.994,275.438C2503.261,2024.307,2547.182,2223.229,2523.869,2223.033z"/>
				<g>
					<defs>
						<path id="SVGID_00000103983995153902318830000008161049696680098205_" d="M2567.769,1934.27l-318.45,35.201
							c-23.832-40.485-57.261-116.337,6.962-143.045c89.29-37.132,71.126-191.339,38.475-242.797
							c-40.411-63.689-131.28-213.81,5.801-273.264c114.118-49.495,198.48-59.425,187.658-204.763
							c-10.821-145.338,60.742-245.258,200.624-253.053c147.204-8.203,242.615-205.727,370.367-158.508
							c222.6,82.276,75.953,422.688-165.309,544.774c-241.262,122.086-84.43,191.106-61.927,308.434
							c30.721,160.177-204.92,152.999-257.555,223.565C2533.153,1826.133,2551.119,1893.625,2567.769,1934.27z"/>
					</defs>
					<clipPath id="SVGID_00000034075341558800882330000009757255912788341163_">
						<use xlink:href="#SVGID_00000103983995153902318830000008161049696680098205_"  style="overflow:visible;"/>
					</clipPath>
					<g style="opacity:0.5;clip-path:url(#SVGID_00000034075341558800882330000009757255912788341163_);">
						<path style="fill:#FCFDFE;" d="M2411.957,1903.579l-6.927-0.508c39.46-477.845,324.505-935.278,743.898-1193.789l3.799,5.489
							C2735.1,972.193,2451.253,1427.72,2411.957,1903.579z"/>
						<path style="fill:#FCFDFE;" d="M2457.122,1644.796l-6.897,0.793c-24.098-186.983-212.529-313.268-214.43-314.521l3.981-5.373
							C2241.702,1326.962,2432.642,1454.865,2457.122,1644.796z"/>
						<path style="fill:#FCFDFE;" d="M2421.756,1815.863l-6.468-2.393c73.891-177.782,435.882-243.283,439.53-243.923l1.272,6.446
							C2852.481,1576.625,2494.242,1641.461,2421.756,1815.863z"/>
						<path style="fill:#FCFDFE;" d="M2649.873,1211.65l-6.664-1.861c45.645-145.241-77.147-346.583-78.392-348.6l6-3.303
							C2572.079,859.926,2696.362,1063.726,2649.873,1211.65z"/>
						<path style="fill:#FCFDFE;" d="M2841.574,966.83l-4.329-5.13c143.151-107.479,389.168-85.409,391.64-85.17l-0.698,6.523
							C3225.746,882.815,2982.493,861.023,2841.574,966.83z"/>
					</g>
				</g>
			</g>
		</g>
		<g>
			<g>
				<path style="fill:#D8DEE8;" d="M2646.312,925.15v1619.938c0,83.659-68.561,158.785-153.665,167.875l-958.2,102.244
					l-887.339,94.715l-40.255,4.304c110.225-11.76,199.336-98.313,199.336-193.474V878.961l13.057,0.333l350.588,8.793
					L2646.312,925.15z"/>
				<g>
					<path style="fill:#EFF2F6;" d="M2661.151,925.15v1619.938c0,83.659-69.023,158.785-154.09,167.875l-972.94,103.804
						l-913.108,97.46c8.942-0.966,17.59-2.375,26.198-4.304c44.519-9.795,85.055-31.831,115.104-61.139
						c35.839-35.021,58.712-80.432,58.712-128.031V878.961l350.347,8.792L2661.151,925.15z"/>
					<g>
						
							<linearGradient id="SVGID_00000116945240012747349180000010408863847435801498_" gradientUnits="userSpaceOnUse" x1="1172.144" y1="583.6604" x2="518.7108" y2="2829.5005">
							<stop  offset="0" style="stop-color:#AA80F9"/>
							<stop  offset="0.9964" style="stop-color:#6165D7"/>
						</linearGradient>
						<path style="fill:url(#SVGID_00000116945240012747349180000010408863847435801498_);" d="M984.265,1031.958v200.632
							c0,13.17-2.413,22.854-7.271,29.049c-4.822,6.233-12.909,9.312-24.151,9.349c-7.271,0-16.807-1.002-24.227-2.931v37.915
							c7.42,2.115,18.774,3.154,30.35,3.154c25.19-0.111,44.738-6.678,57.538-19.774c12.764-13.059,19.7-32.053,19.7-56.947
							v-199.668L984.265,1031.958z"/>
						
							<linearGradient id="SVGID_00000062913749589600885320000003320019397853732997_" gradientUnits="userSpaceOnUse" x1="1349.5869" y1="640.6031" x2="706.5275" y2="2850.7881">
							<stop  offset="0" style="stop-color:#AA80F9"/>
							<stop  offset="0.9964" style="stop-color:#6165D7"/>
						</linearGradient>
						<path style="fill:url(#SVGID_00000062913749589600885320000003320019397853732997_);" d="M1287.291,1061.118
							c-18.847-18.846-46.113-28.529-81.952-29.085c-36.023-0.557-63.812,8.31-83.249,26.637
							c-19.477,18.364-29.237,45.261-29.237,80.654c0,35.356,9.76,62.828,29.161,81.785c19.405,18.884,47.081,28.622,82.991,28.622
							h1.112c35.172,0,62.141-9.739,80.952-28.177c18.959-18.587,28.419-45.327,28.419-79.977
							C1315.488,1106.815,1306.101,1079.928,1287.291,1061.118z M1206.154,1212.632h-1.148c-19.774,0-34.614-6.566-44.592-18.587
							c-9.981-12.019-14.988-30.105-14.988-53.775c0-23.632,5.043-41.56,15.133-53.469c10.094-11.871,25.006-17.757,44.78-17.497
							c0.261,0,0.522-0.03,0.779,0.006c38.697,0.817,57.986,25.213,57.986,72.18
							C1264.104,1188.273,1244.815,1212.632,1206.154,1212.632z"/>
						
							<linearGradient id="SVGID_00000152959584626051077390000007357753079796015803_" gradientUnits="userSpaceOnUse" x1="1572.9449" y1="709.5878" x2="939.3395" y2="2887.2795">
							<stop  offset="0" style="stop-color:#AA80F9"/>
							<stop  offset="0.9964" style="stop-color:#6165D7"/>
						</linearGradient>
						<path style="fill:url(#SVGID_00000152959584626051077390000007357753079796015803_);" d="M1529.977,1154.905
							c-6.271-8.05-18.903-13.615-30.033-16.657v-1.409c7.42-1.522,18.084-6.196,24.355-14.024
							c6.308-7.865,9.062-17.956,9.062-30.274c0-18.141-7.34-31.496-21.698-40.03c-14.394-8.569-38.117-13.095-70.173-13.578
							l-71.394-1.075v208.609l85.553,0.111c25.484,0.037,45.872-5.231,60.636-15.767c14.767-10.499,22.633-25.153,22.633-43.962
							C1538.919,1173.603,1536.245,1162.955,1529.977,1154.905z M1418.326,1074.734l25.801,0.333
							c13.727,0.149,24.014,2.004,30.322,5.528c6.344,3.524,9.63,9.275,9.63,17.177c0,8.496-2.864,14.58-8.65,18.178
							c-5.826,3.636-15.717,5.38-28.702,5.268l-28.401-0.259V1074.734z M1479.874,1203.394c-6.268,4.6-16.526,6.901-29.696,6.826
							l-31.851-0.111v-54.165l30.29,0.223c26.788,0.186,40.411,8.866,40.411,26.044
							C1489.028,1191.745,1486.145,1198.794,1479.874,1203.394z"/>
						
							<linearGradient id="SVGID_00000137104868419928655390000011658316299283221687_" gradientUnits="userSpaceOnUse" x1="1871.0764" y1="804.805" x2="1256.1385" y2="2918.3364">
							<stop  offset="0" style="stop-color:#AA80F9"/>
							<stop  offset="0.9964" style="stop-color:#6165D7"/>
						</linearGradient>
						<path style="fill:url(#SVGID_00000137104868419928655390000011658316299283221687_);" d="M1849.011,1068.761
							c-17.437-18.105-42.7-27.453-75.869-27.973c-33.313-0.482-58.986,8.051-76.981,25.673
							c-17.992,17.696-27.046,43.553-27.046,77.574c0,34.02,9.018,60.175,26.973,78.391c17.956,18.141,43.555,27.23,76.756,27.267
							c33.096,0.037,58.359-8.941,75.945-26.86c17.546-17.882,26.303-43.48,26.303-76.832
							C1875.093,1112.575,1866.412,1086.828,1849.011,1068.761z M1772.845,1213.596c-18.253-0.074-32.016-5.862-41.251-17.399
							c-9.202-11.538-13.84-28.715-13.84-51.457c0-22.778,4.674-39.882,13.988-51.346c9.347-11.426,23.147-17.028,41.4-16.769
							c36.32,0.446,54.388,23.447,54.388,69.005C1827.53,1191.077,1809.354,1213.708,1772.845,1213.596z"/>
						
							<linearGradient id="SVGID_00000108267085346556976750000006814590003922921878_" gradientUnits="userSpaceOnUse" x1="2055.1616" y1="863.1278" x2="1450.8109" y2="2940.271">
							<stop  offset="0" style="stop-color:#AA80F9"/>
							<stop  offset="0.9964" style="stop-color:#6165D7"/>
						</linearGradient>
						<path style="fill:url(#SVGID_00000108267085346556976750000006814590003922921878_);" d="M2045.304,1082.747v-34.577
							l-118.718-1.855v200.782l44.519,0.037v-79.133l70.489,0.483v-34.465l-70.489-0.63v-51.606L2045.304,1082.747z"/>
						
							<linearGradient id="SVGID_00000014599264844210096870000017509577450690990778_" gradientUnits="userSpaceOnUse" x1="2208.9907" y1="910.0673" x2="1610.7877" y2="2966.0813">
							<stop  offset="0" style="stop-color:#AA80F9"/>
							<stop  offset="0.9964" style="stop-color:#6165D7"/>
						</linearGradient>
						<path style="fill:url(#SVGID_00000014599264844210096870000017509577450690990778_);" d="M2212.25,1084.862v-34.168
							l-118.718-1.781v198.332l44.519,0.074v-78.206l70.489,0.482v-34.057l-70.489-0.63v-51.011L2212.25,1084.862z"/>
						
							<linearGradient id="SVGID_00000052100614266305761690000000770817922193982350_" gradientUnits="userSpaceOnUse" x1="2372.9373" y1="960.6121" x2="1783.7889" y2="2985.5059">
							<stop  offset="0" style="stop-color:#AA80F9"/>
							<stop  offset="0.9964" style="stop-color:#6165D7"/>
						</linearGradient>
						<path style="fill:url(#SVGID_00000052100614266305761690000000770817922193982350_);" d="M2375.487,1086.94v-33.798
							l-115.008-1.743v196.032l115.008,0.149v-34.057l-74.198-0.26v-50.381l66.779,0.483v-33.798l-66.779-0.667v-42.886
							L2375.487,1086.94z"/>
						
							<linearGradient id="SVGID_00000114795323354807736810000009864280605125246364_" gradientUnits="userSpaceOnUse" x1="2541.2092" y1="1012.4376" x2="1959.9618" y2="3010.176">
							<stop  offset="0" style="stop-color:#AA80F9"/>
							<stop  offset="0.9964" style="stop-color:#6165D7"/>
						</linearGradient>
						<path style="fill:url(#SVGID_00000114795323354807736810000009864280605125246364_);" d="M2521.214,1163.921
							c11.499-4.897,20.405-11.724,26.672-20.479c6.271-8.719,9.387-18.735,9.387-30.014c0-19.329-6.307-33.834-18.919-43.517
							c-12.651-9.683-31.556-14.728-58.08-15.137l-56.558-0.89v193.732l40.809,0.037v-74.087l21.87,0.149l46.348,74.013
							l45.432,0.037C2569.382,1235.188,2550.411,1207.29,2521.214,1163.921z M2506.447,1134.203
							c-6.195,4.23-15.675,6.308-28.768,6.196l-13.153-0.149v-52.162l12.374,0.149c13.354,0.186,23.121,2.226,29.465,6.196
							c6.344,3.932,9.445,10.461,9.445,19.588C2515.809,1123.222,2512.682,1129.937,2506.447,1134.203z"/>
					</g>
					<g>
						<polygon style="fill:#D8DEE8;" points="2575.823,1478.218 932.326,1504.457 932.326,1442.653 2575.823,1423.11 						"/>
						<polygon style="fill:#D8DEE8;" points="2575.823,1624.089 932.326,1668.056 932.326,1606.252 2575.823,1568.982 						"/>
						<polygon style="fill:#D8DEE8;" points="2575.823,1769.961 932.326,1831.655 932.326,1769.851 2575.823,1714.854 						"/>
						<polygon style="fill:#D8DEE8;" points="2575.823,1915.833 932.326,1995.254 932.326,1933.45 2575.823,1860.726 						"/>
					</g>
					<g>
						<polygon style="fill:#D8DEE8;" points="2575.823,2120.054 932.326,2224.292 932.326,2162.488 2575.823,2064.947 						"/>
						<polygon style="fill:#D8DEE8;" points="2575.823,2265.926 932.326,2387.891 932.326,2326.087 2575.823,2210.819 						"/>
						<polygon style="fill:#D8DEE8;" points="2575.823,2411.798 932.326,2551.49 932.326,2489.686 2575.823,2356.69 						"/>
						<polygon style="fill:#D8DEE8;" points="2575.823,2557.669 932.326,2715.088 932.326,2653.284 2575.823,2502.562 						"/>
					</g>
				</g>
			</g>
			<path style="opacity:0.2;fill:#D8DEE8;" d="M1791.732,2265.805c-2.228,19.403-5.456,39.103-9.72,59.025
				c-6.866,32.239-16.51,65.072-29.161,98.461c-7.568,20.033-16.213,40.252-26.006,60.657
				c-16.101,33.501-35.244,67.484-57.729,101.763c-14.209,21.704-27.564,42.554-40.066,62.625
				c-39.4,63.179-70.489,118.383-94.603,166.871c-0.257,0.52-0.518,1.04-0.743,1.56l-912.899,97.46
				c8.942-0.966,17.695-2.375,26.303-4.304l-40.255,4.304c110.225-11.76,199.336-98.313,199.336-193.474V878.961l14.84,0.333v-0.333
				l349.512,8.792c0.076,0.111-0.297,0.223-0.261,0.334c20.517,35.616,33.576,82.509,35.282,143.945
				c0.333,12.651,0.483,25.042,0.667,37.247c0.743,51.124,0.093,98.462-0.019,142.387c-0.109,12.799-0.137,25.302-0.064,37.508
				c0.373,72.603,3.363,135.301,17.905,189.985c5.641,21.258,13.014,41.328,22.662,60.286c18.513,36.395,45.331,68.708,84.1,97.756
				c27.6,20.739,61.284,39.77,102.354,57.467c51.827,22.297,102.616,53.905,148.99,93.453
				c20.517,17.437,40.178,36.469,58.692,56.948c25.893,28.603,49.526,60.027,70.115,93.898c11.13,18.327,21.408,37.433,30.607,57.17
				c22.52,48.118,38.918,100.205,47.414,155.521c2.931,18.92,4.934,38.25,5.862,57.911
				C1796.478,2200.807,1795.514,2232.898,1791.732,2265.805z"/>
		</g>
		<g>
			<g>
				<g>
					<defs>
						<path id="SVGID_00000119818825108912491500000017858888052178834855_" d="M1476.872,2968.608
							c31.841-87.489,65.688-221.525,35.908-372.489c-34.195-173.349-121.031-210.588-194.105-397.052
							c-104.311-266.173,29.325-452.292-84.785-536.274c-55.647-40.953-145.119-43.846-201.538-6.32
							c-160.966,107.065-133.432,596.711,110.18,795.229c110.178,89.784,209.052,82.712,290.234,196.932
							C1504.499,2749.561,1494.471,2879.363,1476.872,2968.608z"/>
					</defs>
					
						<linearGradient id="SVGID_00000090268636931664559890000007955746531110219933_" gradientUnits="userSpaceOnUse" x1="1487.7292" y1="1924.0376" x2="1183.7542" y2="2413.5264">
						<stop  offset="0.0036" style="stop-color:#E38DDD"/>
						<stop  offset="1" style="stop-color:#9571F6"/>
					</linearGradient>
					
						<use xlink:href="#SVGID_00000119818825108912491500000017858888052178834855_"  style="overflow:visible;fill:url(#SVGID_00000090268636931664559890000007955746531110219933_);"/>
					<clipPath id="SVGID_00000100352933166133603640000006795204879198306201_">
						<use xlink:href="#SVGID_00000119818825108912491500000017858888052178834855_"  style="overflow:visible;"/>
					</clipPath>
					<g style="clip-path:url(#SVGID_00000100352933166133603640000006795204879198306201_);">
						<path style="fill:#FFFFFF;" d="M1501.285,2746.798c-8.264-37.458-19.81-74.38-34.317-109.74
							c-33.324-81.247-71.532-126.587-119.906-183.987c-31.592-37.491-67.402-79.981-108.421-140.581
							c-76.745-113.381-100.422-153.114-120.757-216.621c-40.23-125.655-29.875-236.81-20.122-291.886
							c13.829-78.135,42.552-151.995,85.379-219.529l3.152,2c-42.563,67.119-71.112,140.526-84.857,218.181
							c-9.691,54.734-19.981,165.206,20.006,290.097c20.191,63.06,43.78,102.635,120.293,215.667
							c40.907,60.437,76.648,102.849,108.182,140.267c48.584,57.651,86.959,103.188,120.507,184.976
							c14.582,35.558,26.194,72.686,34.505,110.352L1501.285,2746.798z"/>
						<path style="fill:#FFFFFF;" d="M1099.976,2008.119l-2.652-1.551c-0.46-0.266-46.327-27.424-86.129-80.961
							c-36.755-49.436-75.767-132.133-52.888-245.359l3.659,0.739c-22.607,111.877,15.923,193.566,52.222,242.393
							c33.907,45.604,72.162,71.789,82.394,78.332c11.137-173.995,222.045-226.961,224.186-227.477l0.877,3.627
							c-2.127,0.516-212.882,53.481-221.516,227.188L1099.976,2008.119z"/>
						<path style="fill:#FFFFFF;" d="M1112.819,2300.426c-49.189,0-108.338-12.262-161.646-56.562l2.384-2.87
							c110.899,92.152,247.583,43.621,263.137,37.641c-20.202-90.35,2.431-155.828,25.064-194.921
							c24.683-42.642,54.776-64.022,55.076-64.234l2.145,3.058c-1.181,0.828-117.576,84.821-78.292,256.829l0.351,1.527
							l-1.446,0.609C1218.773,2281.845,1173.337,2300.426,1112.819,2300.426z"/>
						<path style="fill:#FFFFFF;" d="M1212.364,2474.819c-37.219,0-82.473-7.338-135.463-28.64l1.391-3.463
							c87.495,35.172,152.752,31.442,192.086,22.116c37.472-8.883,59.178-24.384,64.003-28.109
							c-36.139-93.282,23.839-239.892,24.452-241.368l3.449,1.431c-0.152,0.368-15.394,37.369-25.886,85.277
							c-9.652,44.081-17.147,106.678,1.96,154.567l0.496,1.243l-1.015,0.868C1337.223,2439.267,1294.265,2474.819,1212.364,2474.819
							z"/>
					</g>
				</g>
			</g>
			<g>
				<g>
					<defs>
						<path id="SVGID_00000166643624471047341570000016380407566735969923_" d="M1685.192,3040.676
							c16.235-81.854,28.164-210.118-35.143-327.191c-110.445-204.243-325.566-144.542-522.574-365.874
							c-158.895-178.514-102.77-311.515-281.294-432.484c-29.882-20.248-187.638-131.461-309.518-71.41
							c-68.68,33.837-95.509,106.955-100.546,120.682c-76.122,207.453,126.951,542.554,400.516,701.595
							c157.174,91.375,209.675,64.834,487.902,174.439C1488.024,2904.837,1609.761,2984.932,1685.192,3040.676z"/>
					</defs>
					
						<linearGradient id="SVGID_00000116954142142270564640000005715745160914752938_" gradientUnits="userSpaceOnUse" x1="1189.6246" y1="2117.5886" x2="976.4647" y2="2753.5754">
						<stop  offset="0" style="stop-color:#AA80F9"/>
						<stop  offset="0.9964" style="stop-color:#6165D7"/>
					</linearGradient>
					
						<use xlink:href="#SVGID_00000166643624471047341570000016380407566735969923_"  style="overflow:visible;fill:url(#SVGID_00000116954142142270564640000005715745160914752938_);"/>
					<clipPath id="SVGID_00000121279948676539809580000016098716841198513837_">
						<use xlink:href="#SVGID_00000166643624471047341570000016380407566735969923_"  style="overflow:visible;"/>
					</clipPath>
					<g style="clip-path:url(#SVGID_00000121279948676539809580000016098716841198513837_);">
						<path style="fill:#FFFFFF;" d="M1705.719,3140.483c-34.487-197.006-107.407-330.864-216.73-397.86
							c-53.348-32.692-96.599-38.992-142.39-45.662c-49.986-7.282-101.672-14.811-168.957-58.495
							c-65.471-42.506-88.103-82.044-116.761-132.101c-25.477-44.504-57.185-99.891-129.913-174.613
							c-63.754-65.507-110.733-96.728-152.179-124.273c-45.342-30.131-81.151-53.93-121.783-110.86
							c-66.21-92.761-98.614-209.944-96.317-348.294l3.732,0.062c-2.282,137.535,29.89,253.969,95.621,346.063
							c40.233,56.372,75.793,80.003,120.812,109.921c41.603,27.649,88.756,58.988,152.788,124.777
							c73.057,75.063,104.896,130.675,130.478,175.363c28.408,49.619,50.841,88.81,115.555,130.826
							c66.601,43.238,117.877,50.707,167.461,57.931c46.182,6.728,89.803,13.081,143.803,46.175
							c110.28,67.577,183.779,202.291,218.454,400.396L1705.719,3140.483z"/>
						<path style="fill:#FFFFFF;" d="M800.407,2219.889l-2.5-0.004c-151.741-0.225-262.564-61.111-328.814-112.147
							c-71.786-55.301-108.2-111.343-108.559-111.903l3.138-2.018c0.359,0.556,36.498,56.143,107.816,111.055
							c65.413,50.365,174.598,110.394,323.955,111.272c-7.655-27.604-74.999-283.599,25.267-389.115l2.703,2.572
							c-104.048,109.495-24.528,385.119-23.712,387.89L800.407,2219.889z"/>
						<path style="fill:#FFFFFF;" d="M783.65,2452.198c-94.313,0-219.665-19.928-343.57-99.704l2.022-3.138
							c142.868,91.984,287.708,103.916,384.064,97.75c96.107-6.163,164.291-31.051,175.066-35.19
							c-34.259-144.231,6.757-344.941,7.177-346.959l3.652,0.761c-0.42,2.016-41.563,203.388-6.819,346.905l0.377,1.56l-1.485,0.607
							c-0.714,0.292-72.731,29.308-177.729,36.041C813.044,2451.687,798.736,2452.198,783.65,2452.198z"/>
						<path style="fill:#FFFFFF;" d="M906.495,2788.42c-16.847,0-34.121-0.444-51.903-1.397l0.203-3.728
							c146.285,7.836,259.937-18.999,329.517-42.894c66.949-22.993,106.95-47.691,115.297-53.091
							c-103.219-136.745-54.182-353.26-53.674-355.441l3.637,0.85c-0.507,2.172-49.53,218.679,54.214,353.914l1.196,1.56
							l-1.62,1.114C1301.823,2690.365,1156.045,2788.42,906.495,2788.42z"/>
					</g>
				</g>
			</g>
			<g>
				<g>
					
						<linearGradient id="SVGID_00000134954481637036981960000016694445648264305807_" gradientUnits="userSpaceOnUse" x1="156.0135" y1="2267.3108" x2="-1235.2061" y2="3410.0999" gradientTransform="matrix(-0.9555 0.2948 0.2948 0.9555 -17.3918 304.4817)">
						<stop  offset="0.0036" style="stop-color:#E38DDD"/>
						<stop  offset="1" style="stop-color:#9571F6"/>
					</linearGradient>
					<path style="fill:url(#SVGID_00000134954481637036981960000016694445648264305807_);" d="M1666.307,2914.26
						c-51.648-39.682-136.414-97.437-251.475-142.415c-204.657-80.003-300.905-39.742-385.738-130.057
						c-87.813-93.487-26.207-180.831-131.573-285.461c-8.86-8.797-122.086-118.335-228.837-82.307
						c-74.68,25.204-106.096,108.117-120.836,147.019c-57.208,150.986-34.22,384.569,124.975,504.511
						c150.929,113.715,348.077,68.124,410.684,53.208c109.833-26.167,136.995-67.781,248.547-91.08
						C1467.712,2859.345,1587.934,2887.391,1666.307,2914.26z"/>
				</g>
			</g>
		</g>
		<g>
			<g>
				
					<linearGradient id="SVGID_00000036253658602644486890000003137149660998923185_" gradientUnits="userSpaceOnUse" x1="1573.4747" y1="2475.4968" x2="869.5966" y2="2550.2102">
					<stop  offset="0" style="stop-color:#FFC444"/>
					<stop  offset="0.9964" style="stop-color:#F36F56"/>
				</linearGradient>
				<path style="fill:url(#SVGID_00000036253658602644486890000003137149660998923185_);" d="M2868.652,1928.73l-1579.827-59.185
					c-33.36-1.25-61.03,27.781-61.03,64.03v1105.737c0,37.272,29.184,66.677,63.41,63.888l1579.827-128.717
					c30.784-2.508,54.582-30.364,54.582-63.889V1992.76C2925.615,1958.236,2900.425,1929.92,2868.652,1928.73z"/>
			</g>
			<g>
				
					<linearGradient id="SVGID_00000137854997702124144920000012196816556333399454_" gradientUnits="userSpaceOnUse" x1="1941.9213" y1="2157.386" x2="2553.9409" y2="3512.8655">
					<stop  offset="0" style="stop-color:#FFC444"/>
					<stop  offset="0.9964" style="stop-color:#F36F56"/>
				</linearGradient>
				<path style="fill:url(#SVGID_00000137854997702124144920000012196816556333399454_);" d="M2895.809,1928.73l-1579.827-59.185
					c-33.36-1.25-61.03,27.781-61.03,64.03v1105.737c0,37.272,29.185,66.677,63.41,63.888l1579.827-128.717
					c30.784-2.508,54.582-30.364,54.582-63.889V1992.76C2952.771,1958.236,2927.581,1929.92,2895.809,1928.73z"/>
			</g>
			<g>
				
					<linearGradient id="SVGID_00000029739143511364658150000002238402826660814748_" gradientUnits="userSpaceOnUse" x1="2087.834" y1="2334.8093" x2="2149.9106" y2="978.5313">
					<stop  offset="0" style="stop-color:#FFC444"/>
					<stop  offset="0.9964" style="stop-color:#F36F56"/>
				</linearGradient>
				<path style="fill:url(#SVGID_00000029739143511364658150000002238402826660814748_);" d="M2275.558,2543.614l661.977-593.725
					c-10.354-12.459-25.118-20.536-41.727-21.158l-1579.827-59.184c-15.032-0.563-28.897,5.035-39.607,14.659l884.964,664.699
					C2196.212,2575.097,2242.865,2572.937,2275.558,2543.614z"/>
				
					<linearGradient id="SVGID_00000120534651148489237470000011298771233107454106_" gradientUnits="userSpaceOnUse" x1="1942.0664" y1="2157.7546" x2="2553.874" y2="3512.7649">
					<stop  offset="0" style="stop-color:#FFC444"/>
					<stop  offset="0.9964" style="stop-color:#F36F56"/>
				</linearGradient>
				<path style="fill:url(#SVGID_00000120534651148489237470000011298771233107454106_);" d="M2275.558,2543.614
					c-32.693,29.323-79.346,31.484-114.219,5.29l-884.964-664.699c-13.059,11.733-21.423,29.455-21.423,49.371v1105.737
					c0,37.272,29.185,66.677,63.41,63.889l1579.827-128.717c30.784-2.509,54.582-30.365,54.582-63.889V1992.76
					c0-16.477-5.782-31.497-15.235-42.872L2275.558,2543.614z"/>
			</g>
			
				<linearGradient id="SVGID_00000024689881550554732980000000770437602488164510_" gradientUnits="userSpaceOnUse" x1="1920.1053" y1="2207.0813" x2="2862.239" y2="744.6658">
				<stop  offset="0" style="stop-color:#FFC444"/>
				<stop  offset="0.9964" style="stop-color:#F36F56"/>
			</linearGradient>
			<path style="fill:url(#SVGID_00000024689881550554732980000000770437602488164510_);" d="M2275.558,2543.614l661.977-593.725
				c-10.354-12.459-25.118-20.536-41.727-21.158l-1579.827-59.184c-15.032-0.563-28.897,5.035-39.607,14.659l884.964,664.699
				C2196.212,2575.097,2242.865,2572.937,2275.558,2543.614z"/>
			
				<linearGradient id="SVGID_00000098931023824225867590000012886548808032187067_" gradientUnits="userSpaceOnUse" x1="2121.637" y1="2076.6758" x2="2733.4446" y2="3431.686">
				<stop  offset="0" style="stop-color:#FFC444"/>
				<stop  offset="0.9964" style="stop-color:#F36F56"/>
			</linearGradient>
			<path style="opacity:0.37;fill:url(#SVGID_00000098931023824225867590000012886548808032187067_);" d="M2937.535,1949.888
				l-661.977,593.725c-32.693,29.323-79.346,31.484-114.219,5.29l-884.964-664.699c-13.059,11.733-21.423,29.455-21.423,49.371
				v163.074c31.973-14.593,59.029-17.392,81.021-15.397c60.799,5.516,75.316,46.733,191.733,106.233
				c108.85,55.633,120.27,31.923,168.255,72.239c92.445,77.671,52.017,167.318,133.039,250.709
				c84.371,86.836,157.168,19.431,277.817,101.984c127.49,87.233,86.677,190.193,191.733,250.71
				c147.184,84.784,297.483-76.877,422.595,8.498c37.828,25.814,62.014,66.496,77.607,110.961l99.437-8.102
				c30.784-2.509,54.582-30.365,54.582-63.889V1992.76C2952.771,1976.282,2946.988,1961.262,2937.535,1949.888z"/>
		</g>
		<g>
			
				<linearGradient id="SVGID_00000020391297030220471040000016050621990953993911_" gradientUnits="userSpaceOnUse" x1="2287.9685" y1="1693.2579" x2="2340.0623" y2="1737.6079">
				<stop  offset="0" style="stop-color:#AB316D"/>
				<stop  offset="1" style="stop-color:#792D3D"/>
			</linearGradient>
			<path style="fill:url(#SVGID_00000020391297030220471040000016050621990953993911_);" d="M2330.04,1757.063
				c3.71-6.029,5.565-40.345,0-57.968c-5.565-17.622-17.158-47.765-20.868-37.563s0,32.462,0,32.462s-28.752,7.884-18.086,34.317
				s13.448,38.49,23.187,38.49S2330.04,1757.063,2330.04,1757.063z"/>
			
				<linearGradient id="SVGID_00000071529086579548432590000006122343119659970478_" gradientUnits="userSpaceOnUse" x1="2364.3152" y1="1894.7484" x2="2665.6855" y2="2585.3892">
				<stop  offset="0" style="stop-color:#AA80F9"/>
				<stop  offset="0.9964" style="stop-color:#6165D7"/>
			</linearGradient>
			<path style="fill:url(#SVGID_00000071529086579548432590000006122343119659970478_);" d="M2429.245,2116.667
				c-2.634,0.37-5.306,0.705-8.014,1.038c-3.525,0.446-7.012,0.817-10.425,1.15c-130.367,12.28-187.5-56.725-201.486-139.086
				c-17.51-102.987,32.351-226.898,90.745-239.104c106.327-22.26,32.128,157.078,50.678,185.199
				c13.615,20.664,118.049,2.56,172.66-8.57c19.81-4.007,33.092-7.123,33.092-7.123S2723.774,2076.896,2429.245,2116.667z"/>
			
				<linearGradient id="SVGID_00000052797545944943589300000000901682049426575274_" gradientUnits="userSpaceOnUse" x1="1468.8511" y1="3112.5757" x2="1468.8511" y2="3049.97" gradientTransform="matrix(1 0 0 1 1315.7783 0)">
				<stop  offset="0" style="stop-color:#AB316D"/>
				<stop  offset="1" style="stop-color:#792D3D"/>
			</linearGradient>
			<path style="fill:url(#SVGID_00000052797545944943589300000000901682049426575274_);" d="M2767.499,3054.879
				c0,0,13.676,34.388,10.077,49.639c14.684-0.288,24.185-2.158,24.185-2.158s-5.902-15.683-7.054-23.453
				c-1.556-10.498-1.439-27.482-1.439-27.482L2767.499,3054.879z"/>
			<path style="fill:#26264F;" d="M2514.722,3144.899c0.842,1.017,2.338,3.141,2.464,6.02c0.068,1.564-0.29,2.85-0.74,4.033
				c-2.222,5.845-5.713,6.615-9.479,12.817c-2.301,3.789-1.866,4.932-3.975,6.643c-2.779,2.254-6.14,2.383-9.054,2.417
				c-4.923,0.057-12.012-0.12-20.938-1.183c4.677-6.025,9.651-12.146,14.941-18.325c2.32-2.71,4.636-5.357,6.946-7.941l13.752-4.644
				C2510.667,3144.791,2512.694,3144.845,2514.722,3144.899z"/>
			
				<linearGradient id="SVGID_00000129900859038582919560000001062051408496063118_" gradientUnits="userSpaceOnUse" x1="1176.9954" y1="3140.2375" x2="1176.9954" y2="3068.3391" gradientTransform="matrix(1 0 0 1 1315.7783 0)">
				<stop  offset="0" style="stop-color:#AB316D"/>
				<stop  offset="1" style="stop-color:#792D3D"/>
			</linearGradient>
			<path style="fill:url(#SVGID_00000129900859038582919560000001062051408496063118_);" d="M2503.285,3078.167
				c0,0-7.861,40.994,2.142,52.473c8.521,11.479-4.115,3.291-4.115,3.291l-15.09,13.163l-9.054,15.631
				c0,0,8.334-40.123,6.112-56.045c-2.223-15.922-3.334-26.66-3.334-26.66L2503.285,3078.167z"/>
			
				<linearGradient id="SVGID_00000052786568989610300160000016812132026405123515_" gradientUnits="userSpaceOnUse" x1="-7622.519" y1="3173.2075" x2="-7891.6348" y2="2086.6565" gradientTransform="matrix(-1 0 0 1 -5133.7847 0)">
				<stop  offset="0" style="stop-color:#444B8C"/>
				<stop  offset="0.9964" style="stop-color:#26264F"/>
			</linearGradient>
			<path style="fill:url(#SVGID_00000052786568989610300160000016812132026405123515_);" d="M2426.356,2308.321
				c-10.053,33.196-24.409,86.776-33.65,153.998c-26.359,191.741,29.666,197.857,19.203,410.33
				c-3.34,67.822,58.757,224.213,64.23,227.667c2.649,0.256,5.523,0.429,8.588,0.337c5.401-0.164,13.016-0.991,21.871-3.646
				c9.836-1.694,45.301-97.754,37.082-154.867c-5.818-40.422-4.131-83.804-0.759-170.567
				c0.546-14.059,36.516-273.516,36.516-273.516l0,0c10.941,96.037,23.524,177.637,34.432,240.903
				c35.048,203.262,149.003,326.291,154.947,328.264c1.174,0.472,11.867,4.356,20.61-1.406c3.891-2.564,5.215-5.874,5.215-5.874
				c3.049-2.387-0.898-202.935-35.656-353.865c-50.451-219.073-28.482-270.333-44.466-368.184
				C2700.689,2253.228,2426.356,2308.321,2426.356,2308.321z"/>
			<g>
				<path style="fill:#26264F;" d="M2773.978,3117.568c0,0-3.409,0-3.125,4.4c0.284,4.4-1.535,19.537,15.792,20.247
					s19.999-1.226,20.566-1.226c0.568,0-4.545-14.479-4.545-14.479l-5.539-7.097l-14.913-1.561L2773.978,3117.568z"/>
				<path style="fill:#444B8C;" d="M2812.396,3132.762c-0.369-3.656-2.416-9.41-4.475-14.04c-3.059-6.879-0.548-9.453-3.472-15.719
					c-1.01-2.166-1.993-4.22-4.129-6.255c-0.492-0.469-5.273-4.885-12.236-4.66c-1.37,0.044-3.479,0.136-5.76,1.35
					c-2.687,1.431-4.033,3.581-5.182,5.468c-1.807,2.966-1.392,3.876-4.175,12.374c-0.223,0.681-0.714,2.164-1.091,4.21
					c-0.289,1.566-0.405,2.881-0.456,3.78c4.545,0,22.014,0.71,25.706,3.407c3.693,2.697,5.539,7.24,5.539,11.782
					s2.272,6.672,4.545,6.53C2809.242,3140.863,2813.275,3137.105,2812.396,3132.762z"/>
			</g>
			<path style="fill:#444B8C;" d="M2501.175,3124.881c3.719,0.058,6.448,3.017,8.505,10.146c2.058,7.13,11.935,13.437,0.412,11.929
				c-11.523-1.508-19.892,14.808-24.007,20.841c-4.115,6.033-15.163,11.393-14.889,5.497c0.274-5.896,5.149-8.651,6.521-14.684
				C2479.088,3152.578,2492.692,3124.748,2501.175,3124.881z"/>
			
				<linearGradient id="SVGID_00000011750216959426195370000013660825087772247451_" gradientUnits="userSpaceOnUse" x1="2487.4636" y1="1894.0616" x2="2741.7439" y2="2476.7876">
				<stop  offset="0" style="stop-color:#AA80F9"/>
				<stop  offset="0.9964" style="stop-color:#6165D7"/>
			</linearGradient>
			<path style="fill:url(#SVGID_00000011750216959426195370000013660825087772247451_);" d="M2789.7,1988.377
				c-49.825,102.32-53.83,130.255-71.452,201.374c-7.791,31.349-23.151,65.072-11.019,121.5c1.781,8.385,4.192,17.251,7.31,26.674
				c-23.93,12.614-57.911,26.748-100.391,33.056c-92.971,13.838-170.99-14.023-201.302-29.569
				c-6.974-31.978-14.653-79.021-6.9-180.969c0.705-8.867,1.967-23.336,4.86-41.588c2.672-16.843,6.641-36.915,12.614-58.618
				c0.779-2.782,1.596-5.565,2.411-8.384c8.125-27.676,16.213-46.3,25.154-62.216c12.354-22.037,25.969-38.324,29.938-42.961
				c4.266-5.045,7.717-8.791,8.422-9.46c10.277-9.238,21.888-15.619,34.058-19.923c37.952-13.505,81.357-7.049,106.735-6.306
				c29.975,0.89,87.74,2.263,119.794,40.215C2770.817,1975.985,2803.463,1960.181,2789.7,1988.377z"/>
			<g>
				
					<linearGradient id="SVGID_00000079450025650057685130000011659757267944104838_" gradientUnits="userSpaceOnUse" x1="1349.2813" y1="1852.3473" x2="1283.5262" y2="1958.7155" gradientTransform="matrix(1 0 0 1 1315.7783 0)">
					<stop  offset="0" style="stop-color:#AB316D"/>
					<stop  offset="1" style="stop-color:#792D3D"/>
				</linearGradient>
				<path style="fill:url(#SVGID_00000079450025650057685130000011659757267944104838_);" d="M2603.969,1867.096
					c2.62-20.212,18.597-33.161,22.083-35.932c14.597-11.603,17.569-12.772,22.582-13.724l6.846-1.037c0,0,0.368,0.008,0.748,0.031
					c4.008,0.243,16.021,4.932,18.205,6.467c6.978,4.906,1.84,39.655-19.312,82.871c-0.832,3.66-1.663,7.32-2.495,10.979
					c18.435,3.24,23.002,6.566,23.147,9.221c0.314,5.753-19.87,13.092-38.579,13.569c-23.459,0.599-48.368-9.495-47.891-17.028
					c0.193-3.049,4.617-6.811,21.651-10.503c2.662-3.743,5.323-7.486,7.985-11.229
					C2616.525,1897.853,2602.04,1881.985,2603.969,1867.096z"/>
				<path style="fill:#26264F;" d="M2648.635,1803.217c-7.359,7.188-9.164,19.687-6.987,28.696c1.301,5.387,2.985,5.955,2.745,9.482
					c-0.674,9.908-18.721,14.224-17.717,19.214c0.717,3.565,10.11,2.261,11.728,6.737c1.773,4.904-8.542,9.124-12.975,21.459
					c-0.691,1.923-4.885,13.594,0.499,20.461c5.026,6.41,16.268,4.891,28.946,3.244c13.983-1.817,24.012-5.947,26.949-7.236
					c9.253-4.062,19.203-8.43,27.448-18.465c1.954-2.378,13.439-16.79,12.476-36.93c-1.265-26.463-23.389-49.06-46.162-52.65
					C2671.893,1796.647,2657.66,1794.403,2648.635,1803.217z"/>
				
					<linearGradient id="SVGID_00000083776894250186071430000014850140740352357797_" gradientUnits="userSpaceOnUse" x1="728.3804" y1="1409.3239" x2="664.7498" y2="1512.256" gradientTransform="matrix(0.9717 -0.2361 0.2361 0.9717 1600.9902 640.4755)">
					<stop  offset="0" style="stop-color:#AB316D"/>
					<stop  offset="1" style="stop-color:#792D3D"/>
				</linearGradient>
				<path style="fill:url(#SVGID_00000083776894250186071430000014850140740352357797_);" d="M2632.97,1859.487
					c5.32-3.184,9.374,3.661,6.868,9.644s-10.929,9.725-16.038,6.159C2618.691,1871.723,2625.809,1863.771,2632.97,1859.487z"/>
			</g>
			
				<linearGradient id="SVGID_00000132062538835830901900000012264349018199219368_" gradientUnits="userSpaceOnUse" x1="-42.2569" y1="2195.8958" x2="9.4728" y2="2401.5688" gradientTransform="matrix(-1 0 0 1 2666.2153 0)">
				<stop  offset="0" style="stop-color:#AB316D"/>
				<stop  offset="1" style="stop-color:#792D3D"/>
			</linearGradient>
			<path style="fill:url(#SVGID_00000132062538835830901900000012264349018199219368_);" d="M2707.761,2254.862
				c0,0-4.674,3.116-11.842,1.558c-7.167-1.558-15.893-7.479-23.684-9.972c-7.791-2.493-8.414,9.037,3.116,14.958
				s21.502,17.763,25.865,26.8c4.363,9.037,15.27-10.907,15.27-10.907L2707.761,2254.862z"/>
			
				<linearGradient id="SVGID_00000165205277190903084740000014777472804791276450_" gradientUnits="userSpaceOnUse" x1="2668.7925" y1="1814.9463" x2="2923.0647" y2="2397.6538">
				<stop  offset="0" style="stop-color:#AA80F9"/>
				<stop  offset="0.9964" style="stop-color:#6165D7"/>
			</linearGradient>
			<path style="fill:url(#SVGID_00000165205277190903084740000014777472804791276450_);" d="M2712.754,1926.054
				c17.704-0.721,98.176-2.087,164.658,58.27c13.368,12.137,76.898,69.812,71.514,152.298
				c-6.458,98.937-108.739,182.733-187.394,170.793c-18.343-2.785-33.234-10.447-44.365-18.053c0,0,0.002,0,0,0l-13.083-37.008
				c-0.211-26.445,14.253-44.934,21.69-55.149c18.336-25.182,44.481-29.583,48.338-51.897c2.134-12.346-3.889-22.457-9.271-31.489
				c-18.328-30.764-47.595-34.558-62.742-50.294C2686.466,2047.281,2668.585,2006.569,2712.754,1926.054z"/>
			
				<linearGradient id="SVGID_00000092448988273833465210000011950731434958929818_" gradientUnits="userSpaceOnUse" x1="2209.3193" y1="2177.2463" x2="2714.5376" y2="2177.2463">
				<stop  offset="0" style="stop-color:#AA80F9"/>
				<stop  offset="0.9964" style="stop-color:#6165D7"/>
			</linearGradient>
			<path style="opacity:0.2;fill:url(#SVGID_00000092448988273833465210000011950731434958929818_);" d="M2714.538,2337.925
				c-23.93,12.614-57.911,26.748-100.391,33.056c-92.971,13.838-170.99-14.023-201.302-29.569
				c-6.974-31.978-14.653-79.021-6.9-180.969c0.705-8.867,1.967-23.336,4.86-41.588c-130.367,12.28-187.5-56.725-201.486-139.086
				c25.339,41.552,68.411,92.674,124.246,84.921c69.449-9.682,83.991-24.076,89.854-4.453c1.929,6.42,2.895,16.51,4.601,31.647
				c0.779,6.938,1.149,15.322,1.225,24.783c0.741,73.976-14.173,211.909,34.353,206.16c51.939-6.159,181.899,27.788,243.63-11.575
				C2709.009,2319.637,2711.42,2328.502,2714.538,2337.925z"/>
		</g>
	</g>
</g>
</svg>
