<?xml version="1.0" encoding="utf-8"?>
<!-- Generator: Adobe Illustrator 27.5.0, SVG Export Plug-In . SVG Version: 6.00 Build 0)  -->
<svg version="1.1" id="Capa_1" xmlns="http://www.w3.org/2000/svg" xmlns:xlink="http://www.w3.org/1999/xlink" x="0px" y="0px"
	 viewBox="0 0 2122 2122" style="enable-background:new 0 0 2122 2122;" xml:space="preserve">
<path style="fill:#8CCDC8;" d="M1510.795,1294.161h-120.187h-17.621h-54.327h-5.468c-0.355,10.053-0.817,17.464-1.085,21.258
	c2.451,2.361,3.989,5.662,3.989,9.335c0,7.17-5.811,12.982-12.981,12.982c-7.169,0-12.982-5.813-12.982-12.982
	c0-3.835,1.694-7.245,4.338-9.621c0.039-0.517,0.082-1.108,0.133-1.854c0.16-2.353,0.375-5.814,0.591-10.206
	c0.129-2.636,0.258-5.644,0.377-8.911h-57.552h-44.19h-8.25h-13.724h-17.619h-14.566h-45.23c0.334,10.426,0.837,17.841,1.074,20.965
	c2.648,2.377,4.346,5.789,4.346,9.628c0,7.17-5.812,12.982-12.982,12.982c-7.17,0-12.983-5.813-12.983-12.982
	c0-3.669,1.536-6.967,3.982-9.328c-0.277-3.815-0.744-11.231-1.056-21.265H971.28l-64.642,534.751h203.9h163.984h181.577v0
	L1510.795,1294.161z"/>
<path style="fill:#E94751;" d="M747.347,1045.743H626.995h-17.62H549.58c-0.341,10.1-0.733,17.496-0.955,21.232
	c2.469,2.363,4.023,5.673,4.023,9.361c0,7.169-5.812,12.982-12.982,12.982c-7.171,0-12.982-5.813-12.982-12.982
	c0-3.823,1.682-7.224,4.312-9.6c0.042-0.689,0.091-1.51,0.151-2.584c0.162-2.893,0.379-7.142,0.595-12.529
	c0.073-1.818,0.145-3.811,0.217-5.88h-14.212H408.555h-17.62h-59.796c0.333,10.445,0.752,17.806,0.954,20.987
	c2.632,2.376,4.318,5.78,4.318,9.606c0,7.169-5.811,12.982-12.982,12.982c-7.169,0-12.981-5.813-12.981-12.982
	c0-3.685,1.55-6.993,4.016-9.356c-0.229-3.74-0.627-11.107-0.944-21.237H207.831l-64.643,783.168h324.137h225.323v0
	L747.347,1045.743z"/>
<g>
	<path style="fill:#F7A93E;" d="M943.058,653.549c-0.401,11.823-0.86,20.481-1.118,24.854c2.89,2.766,4.709,6.642,4.709,10.959
		c0,8.393-6.803,15.197-15.197,15.197c-8.393,0-15.198-6.804-15.198-15.197c0-4.475,1.971-8.457,5.049-11.239
		c0.049-0.807,0.106-1.767,0.177-3.024c0.189-3.387,0.444-8.361,0.696-14.667c0.085-2.128,0.171-4.461,0.254-6.883H687.344
		c0.39,12.227,0.881,20.845,1.117,24.569c3.082,2.781,5.055,6.766,5.055,11.244c0,8.393-6.804,15.197-15.196,15.197
		c-8.393,0-15.198-6.804-15.198-15.197c0-4.313,1.815-8.186,4.702-10.952c-0.268-4.378-0.734-13.002-1.105-24.86H542.998
		l-4.992,77.528c5.202,1.483,10.15,3.545,14.774,6.174c9.995,5.666,18.527,13.733,25.829,23.389
		c14.585,19.348,24.542,45.085,31.737,73.522c14.302,56.848,17.27,124.832,17.291,173.233c-0.001,15.009-0.293,28.071-0.642,38.348
		h120.352l99.449,783.168h-0.195c0,0,0,0,0,0h60.036l64.642-534.751h105.541c-0.184-5.935-0.316-12.754-0.316-20.314
		c0.004-25.56,1.461-59.221,7.281-93.2c5.853-33.976,15.952-68.322,34.018-95.355c9.312-13.917,20.921-25.877,35.118-34.432
		l21.644-397.311H943.058z"/>
</g>
<g>
	<path style="fill:#F4A5A1;" d="M1680.913,1045.743c-0.341,10.1-0.733,17.496-0.955,21.232c2.469,2.363,4.023,5.673,4.023,9.361
		c0,7.169-5.812,12.982-12.982,12.982c-7.169,0-12.981-5.813-12.981-12.982c0-3.823,1.682-7.224,4.312-9.6
		c0.043-0.689,0.092-1.51,0.151-2.584c0.162-2.893,0.379-7.142,0.596-12.529c0.073-1.818,0.145-3.811,0.217-5.88h-200.821
		c0.331,10.444,0.75,17.805,0.952,20.986c2.634,2.376,4.32,5.781,4.32,9.607c0,7.169-5.813,12.982-12.983,12.982
		c-7.169,0-12.982-5.813-12.982-12.982c0-3.685,1.551-6.993,4.016-9.356c-0.229-3.739-0.627-11.107-0.942-21.237h-105.688
		l-1.161,14.061c1.177,1.148,2.379,2.265,3.5,3.478c14.791,16.063,24.91,37.496,32.169,61.008
		c14.436,47.028,17.386,102.907,17.414,142.7c0,10.307-0.207,19.487-0.478,27.171h120.187l99.451,534.75h-1.837c0,0,0,0,0,0h215.573
		v0l54.698-783.168H1680.913z"/>
</g>
<path style="fill:#161010;" d="M1650.274,746.047c9.517,0.016,17.668,2.3,25.156,6.526c13.053,7.354,24.207,21.252,33.196,39.972
	c13.516,28.008,21.885,66.212,26.645,105.09c4.791,38.893,6.092,78.501,6.089,109.758c0,15.071-0.301,28.16-0.652,38.352h17.62
	c0.348-10.278,0.643-23.341,0.643-38.352c-0.021-48.401-2.99-116.384-17.291-173.231c-7.196-28.436-17.154-54.174-31.738-73.521
	c-7.302-9.656-15.834-17.724-25.829-23.389c-9.977-5.673-21.408-8.831-33.84-8.815c-14.547-0.011-27.819,3.2-39.546,9.039
	c-0.68,0.338-1.309,0.753-1.978,1.108c5.552,3.404,10.631,7.561,15.294,12.324C1631.942,747.809,1640.557,746.055,1650.274,746.047z
	"/>
<path style="fill:#161010;" d="M1739.631,1068.545c-0.337,4.851,3.323,9.057,8.174,9.394c4.851,0.337,9.057-3.323,9.395-8.174
	c0.001-0.029,0.072-1.044,0.18-2.887c-2.32-2.17-5.415-3.524-8.843-3.524c-3.406,0-6.482,1.341-8.798,3.488
	c-0.012,0.197-0.027,0.443-0.038,0.605C1739.655,1068.188,1739.631,1068.544,1739.631,1068.545z"/>
<path style="fill:#161010;" d="M1532.82,1077.938c4.85-0.355,8.495-4.574,8.141-9.425h-0.001c-0.001-0.001-0.022-0.294-0.063-0.921
	c-0.018-0.265-0.039-0.592-0.062-0.967c-2.286-2.011-5.251-3.27-8.536-3.27c-3.539,0-6.74,1.425-9.08,3.721
	c0.105,1.723,0.174,2.69,0.177,2.722C1523.749,1074.648,1527.969,1078.293,1532.82,1077.938z"/>
<path style="fill:#161010;" d="M1559.089,843.744c8.086-28.216,19.412-53.144,34.362-70.43c4.518-5.236,9.387-9.689,14.558-13.489
	c-3.197-2.848-6.523-5.298-9.994-7.253c-1.859-1.049-3.76-1.976-5.711-2.78c-11.803,10.001-21.569,22.851-29.603,37.489
	c-17.826,32.559-27.84,74.055-33.655,115.275c-5.782,41.21-7.238,82.135-7.24,113.208c0,11.527,0.203,21.662,0.463,29.979h17.62
	c-0.263-8.251-0.471-18.404-0.471-29.979C1539.391,969.29,1542.831,900.182,1559.089,843.744z"/>
<polygon style="fill:#E48E8C;" points="1878.68,1045.743 1823.983,1828.911 1901.057,1784.78 1978.131,1828.911 "/>
<polygon style="fill:#F4A5A1;" points="1823.983,1828.911 1978.131,1828.911 1901.057,1784.78 "/>
<path style="fill:#B56868;" d="M1876.609,1107.595l20.926,664.036c0.062,1.944,1.687,3.47,3.632,3.409
	c1.944-0.061,3.47-1.687,3.41-3.631l-20.926-664.035c-0.062-1.945-1.687-3.471-3.632-3.41
	C1878.075,1104.026,1876.549,1105.651,1876.609,1107.595z"/>
<path style="fill:#F4A5A1;" d="M1367.418,1177.529c-4.727-31.643-13.043-62.615-26.335-85.16c-1.629-2.772-3.351-5.365-5.117-7.866
	l-17.306,209.658h54.327c0.275-7.621,0.488-16.818,0.488-27.171C1373.478,1241.489,1372.179,1209.178,1367.418,1177.529z"/>
<path style="fill:#B56868;" d="M1670.39,1077.94c-4.851-0.337-8.511-4.542-8.174-9.394c0-0.001,0.024-0.357,0.071-1.098
	c0.012-0.191,0.029-0.472,0.043-0.711c-2.63,2.376-4.312,5.777-4.312,9.6c0,7.169,5.812,12.982,12.981,12.982
	c7.17,0,12.982-5.813,12.982-12.982c0-3.688-1.554-6.998-4.023-9.361c-0.106,1.788-0.173,2.761-0.174,2.79
	C1679.447,1074.616,1675.241,1078.276,1670.39,1077.94z"/>
<path style="fill:#B56868;" d="M1463.543,1068.513h0.001c0.353,4.851-3.291,9.071-8.143,9.425c-4.85,0.354-9.071-3.291-9.424-8.142
	c-0.002-0.033-0.074-1.036-0.183-2.816c-2.465,2.363-4.016,5.671-4.016,9.356c0,7.169,5.813,12.982,12.982,12.982
	c7.17,0,12.983-5.813,12.983-12.982c0-3.826-1.686-7.231-4.32-9.607c0.019,0.324,0.039,0.627,0.055,0.863
	C1463.521,1068.219,1463.543,1068.512,1463.543,1068.513z"/>
<path style="fill:#3F3132;" d="M1445.978,1069.797c0.353,4.851,4.573,8.496,9.424,8.142c4.851-0.354,8.496-4.574,8.143-9.425h-0.001
	c0-0.001-0.022-0.294-0.063-0.921c-0.015-0.236-0.035-0.538-0.055-0.863c-0.202-3.182-0.621-10.542-0.952-20.986
	c-0.263-8.251-0.471-18.401-0.471-29.976c-0.026-46.473,3.414-115.583,19.673-172.022c8.085-28.216,19.411-53.145,34.363-70.431
	c7.473-8.661,15.79-15.434,25.114-20.069c9.335-4.628,19.71-7.188,31.708-7.199c7.153,0.013,13.536,1.309,19.444,3.745
	c1.951,0.805,3.852,1.731,5.711,2.78c3.471,1.955,6.797,4.405,9.994,7.253c8.827,7.864,16.603,18.977,23.202,32.72
	c13.515,28.009,21.885,66.214,26.644,105.092c4.791,38.894,6.091,78.501,6.089,109.758c0,15.069-0.301,28.157-0.65,38.348
	c-0.072,2.069-0.144,4.062-0.217,5.88c-0.217,5.387-0.434,9.636-0.596,12.529c-0.059,1.075-0.108,1.895-0.151,2.584
	c-0.015,0.239-0.031,0.52-0.043,0.711c-0.046,0.741-0.071,1.097-0.071,1.098c-0.337,4.852,3.323,9.057,8.174,9.394
	c4.851,0.336,9.057-3.324,9.395-8.175c0.001-0.028,0.068-1.002,0.174-2.79c0.222-3.736,0.614-11.132,0.955-21.232
	c0.348-10.277,0.641-23.34,0.642-38.348c-0.021-48.401-2.989-116.385-17.292-173.233c-7.195-28.437-17.152-54.175-31.737-73.522
	c-2.642-3.494-5.506-6.693-8.483-9.733c-4.663-4.763-9.742-8.92-15.294-12.324c-0.694-0.427-1.342-0.929-2.052-1.332
	c-9.977-5.674-21.408-8.832-33.839-8.815c-14.547-0.011-27.82,3.2-39.546,9.039c-20.571,10.241-36.139,28.146-48.028,49.808
	c-17.826,32.56-27.84,74.056-33.655,115.277c-5.782,41.21-7.238,82.135-7.24,113.208c0,11.526,0.204,21.66,0.463,29.976
	c0.315,10.13,0.714,17.498,0.942,21.237C1445.904,1068.76,1445.976,1069.764,1445.978,1069.797z"/>
<path style="fill:#161010;" d="M800.446,417.086c9.465-33.03,22.724-62.212,40.225-82.448c5.287-6.129,10.988-11.341,17.041-15.789
	c-3.738-3.325-7.627-6.186-11.698-8.493c-2.176-1.227-4.402-2.313-6.686-3.254c-3.597,3.049-7.09,6.245-10.359,9.727
	c-16.276,17.358-28.642,39.66-38.299,64.54c-14.456,37.332-22.828,80.628-27.701,122.619c-4.859,41.983-6.165,82.644-6.167,114.47
	c0,13.493,0.238,25.356,0.541,35.091h20.625c-0.307-9.659-0.551-21.543-0.551-35.091
	C777.388,564.055,781.414,483.154,800.446,417.086z"/>
<path style="fill:#161010;" d="M769.693,691.237c5.678-0.415,9.945-5.355,9.531-11.033h-0.001c0-0.001-0.026-0.345-0.074-1.079
	c-0.021-0.311-0.045-0.694-0.073-1.134c-2.676-2.353-6.146-3.827-9.99-3.827c-4.144,0-7.89,1.668-10.631,4.356
	c0.123,2.017,0.205,3.148,0.207,3.186C759.076,687.385,764.016,691.653,769.693,691.237z"/>
<path style="fill:#161010;" d="M1011.793,680.242c-0.395,5.68,3.889,10.604,9.569,10.998c5.68,0.394,10.604-3.89,10.999-9.57
	c0.001-0.034,0.083-1.221,0.211-3.379c-2.716-2.541-6.34-4.126-10.352-4.126c-3.988,0-7.588,1.569-10.298,4.082
	c-0.015,0.231-0.031,0.519-0.044,0.709C1011.822,679.825,1011.793,680.241,1011.793,680.242z"/>
<path style="fill:#161010;" d="M907.189,302.718c11.142,0.02,20.683,2.693,29.449,7.639c7.656,4.338,14.715,10.509,21.212,18.398
	c11.374,13.781,20.876,32.836,28.41,55.048c11.339,33.314,18.308,73.592,22.346,113.461c4.05,39.879,5.213,79.376,5.212,111.394
	c0,17.641-0.353,32.961-0.764,44.892h20.627c0.407-12.031,0.752-27.322,0.752-44.892c-0.023-56.66-3.499-136.243-20.241-202.79
	c-8.423-33.289-20.079-63.419-37.154-86.067c-8.547-11.303-18.536-20.747-30.235-27.38c-11.679-6.641-25.062-10.339-39.614-10.319
	c-17.029-0.013-32.567,3.746-46.293,10.581c-0.795,0.395-1.534,0.881-2.315,1.296c6.498,3.985,12.445,8.852,17.903,14.428
	C885.729,304.782,895.814,302.728,907.189,302.718z"/>
<path style="fill:#C47D27;" d="M1166.027,1044.236c4.302-1.753,8.86-3.101,13.542-4.24l-7.427-314.073
	c-0.054-2.276,1.748-4.166,4.024-4.219c2.276-0.054,4.166,1.748,4.221,4.024l7.392,312.621c5.519-0.867,11.215-1.414,17.195-1.412
	c2.591-0.001,5.11,0.169,7.606,0.391l-38.013-383.779l-21.644,397.311C1157.075,1048.359,1161.419,1046.11,1166.027,1044.236z"/>
<path style="fill:#C47D27;" d="M1195.22,1085.292c5.716-8.544,12.318-16.332,19.826-23.077l-0.687-6.937
	c-3.005-0.427-6.094-0.726-9.385-0.729c-5.96,0.003-11.528,0.534-16.776,1.503l0.927,39.193
	C1191.054,1091.837,1193.073,1088.505,1195.22,1085.292z"/>
<path style="fill:#C47D27;" d="M1161.202,1180.647c4.12-23.92,10.42-47.969,20.049-69.575l-1.256-53.084
	c-2.521,0.743-4.962,1.598-7.327,2.56c-7.726,3.147-14.644,7.493-20.968,12.793l-12.029,220.819h14.566
	c-0.184-5.935-0.316-12.754-0.316-20.314C1153.924,1248.287,1155.381,1214.626,1161.202,1180.647z"/>
<path style="fill:#C47D27;" d="M1171.532,1273.847c0,7.591,0.135,14.422,0.323,20.314h13.724l-3.079-130.206
	C1173.683,1202.552,1171.505,1243.944,1171.532,1273.847z"/>
<path style="fill:#C47D27;" d="M1191.05,1133.89c-0.33,0.938-0.624,1.906-0.943,2.853l3.722,157.418h44.19l-20.695-208.944
	C1206.296,1098.391,1197.609,1115.168,1191.05,1133.89z"/>
<path style="fill:#8C5618;" d="M1189.125,1095.245l-0.927-39.193c-2.823,0.522-5.564,1.159-8.203,1.937l1.256,53.084
	C1183.672,1105.637,1186.251,1100.321,1189.125,1095.245z"/>
<path style="fill:#8C5618;" d="M1180.387,725.728c-0.055-2.276-1.944-4.078-4.221-4.024c-2.277,0.053-4.078,1.943-4.024,4.219
	l7.427,314.073c2.679-0.651,5.411-1.208,8.21-1.647L1180.387,725.728z"/>
<path style="fill:#8C5618;" d="M1182.5,1163.955l3.079,130.206h8.25l-3.722-157.418
	C1187.143,1145.522,1184.627,1154.65,1182.5,1163.955z"/>
<path style="fill:#F7A93E;" d="M603.937,897.637c-4.759-38.878-13.129-77.083-26.644-105.092
	c-8.989-18.72-20.142-32.619-33.196-39.973c-2.338-1.319-4.772-2.377-7.261-3.308l-5.165,80.214c0.418,1.564,0.859,3.103,1.26,4.685
	c14.302,56.848,17.271,124.832,17.291,173.233c-0.001,15.009-0.293,28.071-0.642,38.348h59.795
	c0.35-10.191,0.651-23.279,0.651-38.348C610.029,976.138,608.727,936.531,603.937,897.637z"/>
<path style="fill:#F7A93E;" d="M527.005,901.95l-9.257,143.793h14.212c0.35-10.191,0.651-23.279,0.651-38.348
	C532.613,977.292,531.373,939.447,527.005,901.95z"/>
<path style="fill:#F7A93E;" d="M1147.546,1076.961c-14.777,14.002-25.901,34.062-33.912,56.928
	c-16.093,45.712-19.552,102.067-19.518,139.957c0,7.591,0.135,14.422,0.323,20.314h45.23l12.029-220.819
	C1150.296,1074.518,1148.889,1075.687,1147.546,1076.961z"/>
<path style="fill:#C47D27;" d="M930.737,691.24c-5.68-0.394-9.964-5.318-9.569-10.998c0-0.001,0.03-0.418,0.084-1.286
	c0.014-0.223,0.035-0.553,0.051-0.833c-3.078,2.781-5.049,6.764-5.049,11.239c0,8.393,6.804,15.197,15.198,15.197
	c8.394,0,15.197-6.804,15.197-15.197c0-4.317-1.818-8.193-4.709-10.959c-0.124,2.093-0.203,3.234-0.205,3.267
	C941.341,687.35,936.416,691.634,930.737,691.24z"/>
<path style="fill:#C47D27;" d="M688.599,680.205h0.001c0.414,5.678-3.852,10.618-9.531,11.033
	c-5.677,0.415-10.618-3.852-11.032-9.53c-0.003-0.038-0.086-1.213-0.215-3.298c-2.887,2.766-4.702,6.639-4.702,10.952
	c0,8.393,6.804,15.197,15.198,15.197c8.392,0,15.196-6.804,15.196-15.197c0-4.478-1.973-8.463-5.055-11.244
	c0.023,0.379,0.046,0.731,0.064,1.008C688.574,679.86,688.599,680.204,688.599,680.205z"/>
<path style="fill:#3F3132;" d="M668.038,681.708c0.414,5.678,5.354,9.945,11.032,9.53c5.679-0.415,9.945-5.355,9.531-11.033h-0.001
	c0-0.001-0.025-0.345-0.074-1.079c-0.018-0.277-0.041-0.63-0.064-1.008c-0.236-3.724-0.727-12.341-1.117-24.569
	c-0.307-9.66-0.55-21.545-0.55-35.095c-0.029-54.403,3.997-135.303,23.029-201.371c9.467-33.029,22.723-62.211,40.225-82.446
	c8.748-10.139,18.485-18.066,29.4-23.493c10.927-5.417,23.072-8.415,37.116-8.427c8.375,0.014,15.847,1.532,22.763,4.384
	c2.284,0.942,4.51,2.027,6.686,3.254c4.071,2.306,7.96,5.168,11.698,8.493c3.293,2.929,6.471,6.21,9.513,9.905
	c11.374,13.781,20.876,32.836,28.411,55.048c11.339,33.314,18.308,73.592,22.346,113.461c4.05,39.879,5.213,79.376,5.212,111.394
	c0,17.641-0.353,32.961-0.764,44.892c-0.083,2.422-0.168,4.755-0.254,6.883c-0.253,6.306-0.508,11.28-0.696,14.667
	c-0.071,1.257-0.128,2.218-0.177,3.024c-0.017,0.28-0.038,0.61-0.051,0.833c-0.054,0.868-0.084,1.285-0.084,1.286
	c-0.395,5.68,3.889,10.604,9.569,10.998c5.68,0.394,10.604-3.89,10.999-9.57c0.002-0.033,0.08-1.174,0.205-3.267
	c0.258-4.373,0.717-13.031,1.118-24.854c0.407-12.031,0.75-27.322,0.75-44.892c-0.023-56.66-3.499-136.243-20.241-202.79
	c-8.423-33.289-20.079-63.419-37.154-86.067c-3.092-4.091-6.447-7.835-9.93-11.393c-5.458-5.576-11.404-10.443-17.903-14.428
	c-0.814-0.499-1.572-1.088-2.402-1.558c-11.679-6.641-25.062-10.339-39.614-10.319c-17.029-0.013-32.566,3.746-46.292,10.581
	c-12.018,5.971-22.63,14.24-31.928,24.145c-16.277,17.358-28.641,39.66-38.298,64.539c-14.457,37.332-22.828,80.627-27.702,122.617
	c-4.859,41.982-6.166,82.644-6.167,114.47c0,13.494,0.237,25.359,0.541,35.095c0.37,11.858,0.837,20.483,1.105,24.86
	C667.952,680.494,668.035,681.669,668.038,681.708z"/>
<path style="fill:#161010;" d="M1282.389,1054.548c9.784,0.009,18.219,1.958,25.79,5.464c10.771,4.995,19.949,13.396,27.787,24.491
	c1.766,2.501,3.487,5.093,5.117,7.866c13.292,22.545,21.608,53.517,26.335,85.16c4.761,31.649,6.06,63.96,6.057,89.461
	c0,10.353-0.213,19.55-0.488,27.171h17.621c0.271-7.684,0.478-16.864,0.478-27.171c-0.028-39.793-2.978-95.673-17.414-142.7
	c-7.259-23.512-17.379-44.945-32.169-61.008c-1.121-1.214-2.323-2.33-3.5-3.478c-6.588-6.433-14.008-11.868-22.41-15.766
	c-9.894-4.601-21.041-7.108-33.204-7.1c-14.316-0.005-27.33,2.566-38.946,7.299c-0.9,0.366-1.743,0.812-2.626,1.203
	c6.441,3.307,12.359,7.416,17.682,12.286C1265.756,1055.696,1273.65,1054.552,1282.389,1054.548z"/>
<path style="fill:#161010;" d="M1371.756,1316.829c-0.412,4.846,3.184,9.107,8.03,9.519c4.845,0.411,9.107-3.185,9.519-8.031
	c0.003-0.039,0.091-1.111,0.224-2.992c-2.323-2.188-5.434-3.553-8.877-3.553c-3.395,0-6.46,1.333-8.774,3.467
	c-0.018,0.25-0.039,0.522-0.053,0.713C1371.779,1316.552,1371.756,1316.828,1371.756,1316.829z"/>
<path style="fill:#161010;" d="M1165.075,1326.344c4.844-0.433,8.42-4.71,7.989-9.554h-0.001c0-0.001-0.019-0.225-0.061-0.73
	c-0.022-0.268-0.05-0.632-0.08-1.041c-2.283-1.997-5.236-3.247-8.507-3.247c-3.555,0-6.771,1.434-9.115,3.749
	c0.13,1.783,0.219,2.791,0.223,2.835C1155.953,1323.2,1160.231,1326.776,1165.075,1326.344z"/>
<path style="fill:#161010;" d="M1182.5,1163.955c2.127-9.306,4.643-18.433,7.607-27.212c0.319-0.947,0.613-1.915,0.943-2.853
	c6.559-18.721,15.246-35.499,26.274-48.673c2.442-2.918,4.96-5.717,7.638-8.256c4.687-4.448,9.782-8.231,15.252-11.44
	c-3.007-2.139-6.155-3.982-9.45-5.509c-2.9-1.343-5.977-2.378-9.158-3.242c-2.266,1.722-4.446,3.545-6.56,5.446
	c-7.508,6.746-14.109,14.533-19.826,23.077c-2.147,3.214-4.166,6.545-6.095,9.953c-2.873,5.076-5.453,10.392-7.874,15.827
	c-9.629,21.606-15.928,45.655-20.049,69.575c-5.821,33.979-7.278,67.64-7.282,93.2c0,7.56,0.132,14.378,0.316,20.314h17.619
	c-0.188-5.892-0.323-12.723-0.323-20.314C1171.505,1243.944,1173.683,1202.552,1182.5,1163.955z"/>
<polygon style="fill:#63A5A0;" points="1510.795,1294.161 1456.099,1828.911 1533.172,1784.78 1610.246,1828.911 "/>
<polygon style="fill:#8CCDC8;" points="1456.099,1828.911 1610.246,1828.911 1533.172,1784.78 "/>
<path style="fill:#3A6360;" d="M1529.653,1771.697c0.099,1.943,1.753,3.438,3.695,3.341c1.943-0.098,3.438-1.752,3.341-3.695
	l-20.925-415.618c-0.099-1.943-1.753-3.439-3.696-3.341c-1.943,0.098-3.438,1.752-3.341,3.695L1529.653,1771.697z"/>
<path style="fill:#63A5A0;" d="M1302.371,1326.348c-4.846-0.411-8.442-4.672-8.03-9.518c0-0.001,0.023-0.277,0.069-0.877
	c0.017-0.219,0.039-0.522,0.061-0.82c-2.643,2.376-4.338,5.787-4.338,9.621c0,7.17,5.813,12.982,12.982,12.982
	c7.17,0,12.981-5.813,12.981-12.982c0-3.672-1.538-6.973-3.989-9.335c-0.129,1.822-0.216,2.859-0.218,2.898
	C1311.478,1323.162,1307.217,1326.758,1302.371,1326.348z"/>
<path style="fill:#63A5A0;" d="M1095.648,1316.79L1095.648,1316.79c0.432,4.844-3.144,9.121-7.988,9.554
	c-4.844,0.432-9.122-3.144-9.553-7.989c-0.004-0.045-0.095-1.083-0.23-2.929c-2.446,2.361-3.982,5.659-3.982,9.328
	c0,7.17,5.813,12.982,12.983,12.982c7.17,0,12.982-5.813,12.982-12.982c0-3.839-1.698-7.251-4.346-9.628
	c0.028,0.366,0.053,0.688,0.073,0.934C1095.628,1316.565,1095.648,1316.789,1095.648,1316.79z"/>
<path style="fill:#3F3132;" d="M1187.779,1038.349c-2.799,0.44-5.531,0.996-8.21,1.647c-4.682,1.139-9.24,2.487-13.542,4.24
	c-4.609,1.873-8.952,4.122-13.105,6.624c-14.197,8.555-25.806,20.515-35.118,34.432c-18.067,27.033-28.165,61.379-34.018,95.355
	c-5.821,33.979-7.277,67.64-7.281,93.2c0,7.56,0.132,14.378,0.316,20.314c0.312,10.034,0.778,17.45,1.056,21.265
	c0.135,1.846,0.227,2.884,0.23,2.929c0.431,4.844,4.709,8.421,9.553,7.989c4.844-0.433,8.42-4.71,7.989-9.554h-0.001
	c0-0.001-0.02-0.225-0.061-0.73c-0.02-0.246-0.045-0.568-0.073-0.934c-0.237-3.124-0.74-10.539-1.074-20.965
	c-0.188-5.892-0.323-12.723-0.323-20.314c-0.034-37.89,3.425-94.245,19.518-139.957c8.011-22.867,19.135-42.927,33.912-56.928
	c1.343-1.274,2.75-2.444,4.152-3.62c6.324-5.301,13.242-9.646,20.968-12.793c2.365-0.962,4.806-1.817,7.327-2.56
	c2.64-0.778,5.38-1.415,8.203-1.937c5.248-0.969,10.816-1.501,16.776-1.503c3.291,0.003,6.38,0.302,9.385,0.729
	c2.504,0.356,4.918,0.859,7.247,1.492c3.182,0.864,6.258,1.9,9.158,3.242c3.295,1.528,6.442,3.371,9.45,5.509
	c9.039,6.429,16.802,15.538,23.454,26.848c13.292,22.545,21.608,53.518,26.335,85.162c4.76,31.65,6.059,63.961,6.056,89.462
	c0,10.352-0.214,19.547-0.488,27.168c-0.118,3.267-0.247,6.275-0.377,8.911c-0.215,4.392-0.431,7.853-0.591,10.206
	c-0.051,0.746-0.094,1.337-0.133,1.854c-0.022,0.298-0.044,0.601-0.061,0.82c-0.046,0.6-0.069,0.876-0.069,0.877
	c-0.412,4.846,3.184,9.107,8.03,9.518s9.107-3.185,9.519-8.031c0.002-0.038,0.089-1.076,0.218-2.898
	c0.268-3.795,0.73-11.205,1.085-21.258c0.27-7.683,0.478-16.862,0.478-27.168c-0.028-39.792-2.978-95.673-17.413-142.701
	c-7.26-23.512-17.379-44.946-32.169-61.009c-1.79-1.939-3.656-3.789-5.59-5.557c-5.323-4.869-11.241-8.979-17.682-12.286
	c-0.887-0.455-1.73-0.98-2.638-1.402c-7.787-3.621-16.375-5.888-25.598-6.71c-2.496-0.222-5.015-0.392-7.606-0.391
	C1198.995,1036.935,1193.298,1037.483,1187.779,1038.349z"/>
<path style="fill:#161010;" d="M518.941,746.047c6.546,0.011,12.413,1.167,17.895,3.217c2.489,0.931,4.922,1.989,7.261,3.308
	c13.054,7.354,24.207,21.252,33.196,39.973c13.515,28.009,21.885,66.214,26.644,105.092c4.79,38.894,6.092,78.501,6.089,109.758
	c0,15.069-0.301,28.157-0.651,38.348h17.62c0.349-10.277,0.641-23.34,0.642-38.348c-0.021-48.401-2.989-116.385-17.291-173.233
	c-7.195-28.437-17.152-54.175-31.737-73.522c-7.302-9.656-15.834-17.723-25.829-23.389c-4.624-2.629-9.572-4.691-14.774-6.174
	c-6.024-1.718-12.395-2.651-19.066-2.641c-14.547-0.011-27.82,3.2-39.545,9.039c-0.68,0.338-1.308,0.753-1.978,1.108
	c5.552,3.404,10.631,7.561,15.293,12.324C500.608,747.809,509.223,746.055,518.941,746.047z"/>
<path style="fill:#161010;" d="M401.484,1077.938c4.851-0.354,8.496-4.574,8.143-9.425h-0.001c0-0.001-0.022-0.294-0.063-0.921
	c-0.018-0.266-0.038-0.592-0.062-0.968c-2.286-2.011-5.251-3.27-8.535-3.27c-3.54,0-6.741,1.425-9.082,3.722
	c0.106,1.722,0.174,2.689,0.177,2.721C392.414,1074.647,396.634,1078.292,401.484,1077.938z"/>
<path style="fill:#161010;" d="M427.756,843.746c8.085-28.216,19.412-53.145,34.363-70.431c4.518-5.236,9.386-9.688,14.558-13.489
	c-3.198-2.848-6.524-5.298-9.995-7.253c-1.858-1.049-3.759-1.976-5.71-2.78c-11.804,10.001-21.57,22.852-29.604,37.49
	c-17.826,32.56-27.841,74.056-33.655,115.277c-5.782,41.21-7.238,82.135-7.24,113.208c0,11.526,0.203,21.66,0.463,29.976h17.62
	c-0.263-8.251-0.471-18.401-0.471-29.976C408.058,969.295,411.498,900.185,427.756,843.746z"/>
<path style="fill:#161010;" d="M608.297,1068.545c-0.337,4.852,3.323,9.057,8.174,9.394c4.851,0.336,9.057-3.324,9.394-8.175
	c0.002-0.028,0.072-1.043,0.18-2.886c-2.32-2.17-5.415-3.525-8.843-3.525c-3.407,0-6.482,1.341-8.798,3.488
	c-0.013,0.197-0.029,0.444-0.038,0.606C608.322,1068.189,608.297,1068.544,608.297,1068.545z"/>
<polygon style="fill:#D23746;" points="747.347,1045.743 692.649,1828.911 769.723,1784.78 846.797,1828.911 "/>
<polygon style="fill:#E94751;" points="692.649,1828.911 846.797,1828.911 769.723,1784.78 "/>
<path style="fill:#8E2534;" d="M766.202,1771.631c0.062,1.944,1.687,3.47,3.632,3.409c1.944-0.061,3.47-1.687,3.409-3.631
	l-20.925-664.035c-0.062-1.945-1.687-3.471-3.633-3.41c-1.944,0.062-3.47,1.687-3.409,3.631L766.202,1771.631z"/>
<path style="fill:#B56868;" d="M539.057,1077.94c-4.851-0.337-8.512-4.542-8.175-9.394c0-0.001,0.025-0.357,0.071-1.098
	c0.012-0.191,0.029-0.472,0.044-0.711c-2.63,2.376-4.312,5.777-4.312,9.6c0,7.169,5.811,12.982,12.982,12.982
	c7.169,0,12.982-5.813,12.982-12.982c0-3.688-1.554-6.998-4.023-9.361c-0.106,1.788-0.173,2.761-0.174,2.79
	C548.114,1074.616,543.908,1078.276,539.057,1077.94z"/>
<path style="fill:#B56868;" d="M332.21,1068.513h0.001c0.355,4.851-3.291,9.071-8.141,9.425c-4.851,0.355-9.071-3.29-9.425-8.141
	c-0.003-0.033-0.074-1.037-0.183-2.817c-2.466,2.363-4.016,5.671-4.016,9.356c0,7.169,5.812,12.982,12.981,12.982
	c7.171,0,12.982-5.813,12.982-12.982c0-3.826-1.686-7.231-4.318-9.606c0.019,0.324,0.039,0.626,0.055,0.862
	C332.188,1068.219,332.209,1068.512,332.21,1068.513z"/>
<path style="fill:#3F3132;" d="M314.645,1069.797c0.355,4.851,4.574,8.496,9.425,8.141c4.85-0.355,8.496-4.574,8.141-9.425h-0.001
	c-0.001-0.001-0.022-0.294-0.063-0.921c-0.016-0.236-0.035-0.538-0.055-0.862c-0.202-3.181-0.621-10.542-0.954-20.987
	c-0.263-8.251-0.471-18.404-0.471-29.979c-0.026-46.474,3.414-115.582,19.673-172.021c8.086-28.215,19.411-53.144,34.362-70.43
	c7.473-8.661,15.791-15.434,25.115-20.069c9.336-4.628,19.71-7.188,31.709-7.199c7.153,0.013,13.536,1.308,19.446,3.745
	c1.951,0.805,3.852,1.732,5.71,2.78c3.471,1.955,6.797,4.405,9.995,7.253c8.826,7.864,16.602,18.977,23.201,32.719
	c13.515,28.009,21.886,66.214,26.644,105.092c0.177,1.436,0.315,2.876,0.484,4.313c4.368,37.497,5.608,75.342,5.606,105.445
	c0,15.069-0.301,28.157-0.651,38.348c-0.072,2.069-0.144,4.062-0.217,5.88c-0.216,5.387-0.433,9.636-0.595,12.529
	c-0.06,1.075-0.109,1.895-0.151,2.584c-0.015,0.239-0.032,0.52-0.044,0.711c-0.046,0.741-0.071,1.097-0.071,1.098
	c-0.337,4.852,3.323,9.057,8.175,9.394c4.851,0.336,9.057-3.324,9.394-8.175c0.002-0.028,0.068-1.002,0.174-2.79
	c0.222-3.736,0.614-11.132,0.955-21.232c0.349-10.277,0.641-23.34,0.642-38.348c-0.02-48.401-2.989-116.385-17.291-173.233
	c-0.401-1.581-0.842-3.121-1.26-4.685c-7.091-26.561-16.704-50.566-30.477-68.838c-2.642-3.494-5.507-6.693-8.484-9.733
	c-4.663-4.763-9.742-8.92-15.293-12.324c-0.694-0.427-1.342-0.929-2.052-1.332c-9.977-5.674-21.408-8.832-33.839-8.815
	c-14.548-0.011-27.821,3.2-39.545,9.039c-20.573,10.24-36.14,28.145-48.029,49.807c-17.824,32.559-27.84,74.055-33.655,115.275
	c-5.782,41.21-7.238,82.135-7.24,113.208c0,11.527,0.204,21.662,0.463,29.979c0.317,10.13,0.715,17.497,0.944,21.237
	C314.571,1068.76,314.643,1069.764,314.645,1069.797z"/>
</svg>
